<?xml version="1.0" encoding="UTF-8" standalone="no"?>
<!-- Created with Inkscape (http://www.inkscape.org/) -->

<svg
   version="1.1"
   id="svg2551"
   width="70.699997mm"
   height="56.400002mm"
   viewBox="0 0 267.21258 213.16536"
   sodipodi:docname="Blower_111111470-6_metal.svg"
   inkscape:version="1.2.2 (732a01da63, 2022-12-09)"
   xmlns:inkscape="http://www.inkscape.org/namespaces/inkscape"
   xmlns:sodipodi="http://sodipodi.sourceforge.net/DTD/sodipodi-0.dtd"
   xmlns="http://www.w3.org/2000/svg"
   xmlns:svg="http://www.w3.org/2000/svg">
  <defs
     id="defs2555" />
  <sodipodi:namedview
     id="namedview2553"
     pagecolor="#ffffff"
     bordercolor="#000000"
     borderopacity="0.25"
     inkscape:showpageshadow="2"
     inkscape:pageopacity="0.0"
     inkscape:pagecheckerboard="0"
     inkscape:deskcolor="#d1d1d1"
     showgrid="false"
     inkscape:zoom="5.7349944"
     inkscape:cx="132.86848"
     inkscape:cy="134.26343"
     inkscape:window-width="1920"
     inkscape:window-height="1017"
     inkscape:window-x="-8"
     inkscape:window-y="-8"
     inkscape:window-maximized="1"
     inkscape:current-layer="layer1"
     inkscape:document-units="mm" />
  <g
     inkscape:groupmode="layer"
     id="layer1"
     inkscape:label="lines_metal"
     style="display:inline">
    <path
       style="fill:#ffffff;fill-opacity:0;stroke:#000000;stroke-width:0.570709"
       d="M 241.67417,213.03421 21.74494,212.89467 34.535347,181.1632 c 1.753032,-5.57726 1.134207,-8.71392 1.040975,-11.15955 -0.06675,-1.75093 -0.55903,-7.28363 -0.720235,-7.84133 -0.512788,-1.77403 -1.097251,-2.52834 -1.551788,-3.40018 0,0 -17.929995,-28.78569 -17.929995,-54.59217 0,-17.465221 7.242196,-44.791074 24.627912,-64.201156 C 60.243949,17.370165 91.08241,3.4450529 120.68387,3.4450529 c 36.81433,0 77.45494,24.2735881 88.42471,34.8016111 21.66255,20.790227 32.21685,51.204162 32.21685,64.281766 0,26.15522 0.34874,110.50578 0.34874,110.50578 z"
       id="path865"
       sodipodi:nodetypes="cccsscsssssc" />
    <path
       style="fill:#ffffff;fill-opacity:0;stroke:#000000;stroke-width:0.570709"
       d="m 87.664064,85.07483 c 0,0 -2.835828,-0.369891 -3.945499,-2.219343 -1.109672,-1.849453 -0.123297,-32.55037 -0.123297,-32.55037 0,0 28.199832,-19.041455 63.991072,-2.096046 27.86509,13.192763 35.0163,45.86643 35.0163,45.86643 0,0 0.49319,0.493187 -1.47956,0.739781 -1.97275,0.246593 -23.3031,-13.192764 -23.3031,-13.192764 0,0 -10.24782,1.696412 -12.03951,2.769798 -0.24798,0.148562 0.49319,-0.246593 0.49319,-0.246593 0,0 -14.47208,-12.756844 -28.24737,-12.756844 -0.17889,0 -2.12724,0.123297 -2.12724,0.123297 -4.34439,0.393692 -12.14475,-2.527586 -28.234986,13.562654 z"
       id="path1281"
       sodipodi:nodetypes="cscscscscscc" />
    <path
       style="fill:#ffffff;fill-opacity:0;stroke:#000000;stroke-width:0.570709"
       d="m 152.27162,95.431766 c 0,0 1.29568,-2.571973 2.92173,-2.820869 0.99257,-0.151931 0.77717,-0.138256 0.77717,-0.138256 0,0 21.70025,10.603529 25.02927,13.562659 3.32901,2.95912 3.45231,3.08242 3.45231,3.08242 0,0 -2.71253,67.07349 -68.05987,67.07349 -2.74922,0 -1.37153,0.0499 -0.71178,0.0579 0,0 -12.79899,-0.43628 -18.649399,-2.94354 -0.107885,-0.0462 -0.366316,-0.32008 -0.366316,-0.32008 0,0 -0.863078,-1.10967 0.36989,-2.58923 1.232969,-1.47957 22.809915,-12.45299 23.549705,-13.68596 0.73978,-1.23296 2.95912,-6.78132 2.95912,-10.11034 v -0.36989 c 0,0 31.33236,-6.36656 31.33236,-37.19077 0,-2.58924 -0.0585,-1.66398 -0.0585,-1.66398 0,0 -0.85533,-9.015847 -2.54564,-11.943554 z"
       id="path1283"
       sodipodi:nodetypes="cscscscscssscsccc" />
    <path
       style="fill:#ffffff;fill-opacity:0;stroke:#000000;stroke-width:0.570709"
       d="m 111.09047,145.98348 c 0,0 1.10967,3.9455 0.36989,4.93187 -0.73978,0.98638 -24.41278,15.53541 -27.002014,15.53541 -2.589234,0 -35.509494,-17.26156 -35.509494,-58.07282 0,-6.53474 -0.123297,-0.86308 -0.123297,-0.86308 0,0 -0.678133,-25.337506 21.94684,-47.962479 l 0.123297,-0.123297 c 0,0 1.849452,-0.246594 2.589233,0.616484 0.739782,0.863078 0.123297,26.385527 0.123297,26.385527 0,0 0.616485,5.178468 3.329015,6.781328 2.712531,1.602859 3.575609,1.602859 4.685281,2.835827 1.109672,1.232969 -2.34264,3.9455 -2.34264,11.22002 0,7.27451 4.808577,34.76971 31.810592,38.71521 z"
       id="path1285"
       sodipodi:nodetypes="cssscscscsssc" />
  </g>
</svg>
