<?xml version="1.0" encoding="UTF-8" standalone="no"?>
<!-- Created with Inkscape (http://www.inkscape.org/) -->

<svg
   version="1.1"
   id="svg2"
   width="419.62918mm"
   height="279.04724mm"
   viewBox="0 0 1586.0001 1054.6667"
   sodipodi:docname="xs-dimensions.svg"
   inkscape:version="1.2.1 (9c6d41e410, 2022-07-14)"
   xmlns:inkscape="http://www.inkscape.org/namespaces/inkscape"
   xmlns:sodipodi="http://sodipodi.sourceforge.net/DTD/sodipodi-0.dtd"
   xmlns="http://www.w3.org/2000/svg"
   xmlns:svg="http://www.w3.org/2000/svg">
  <defs
     id="defs6" />
  <sodipodi:namedview
     id="namedview4"
     pagecolor="#ffffff"
     bordercolor="#666666"
     borderopacity="1.0"
     inkscape:showpageshadow="2"
     inkscape:pageopacity="0.0"
     inkscape:pagecheckerboard="0"
     inkscape:deskcolor="#d1d1d1"
     showgrid="false"
     inkscape:zoom="1.3455538"
     inkscape:cx="573.74148"
     inkscape:cy="602.72582"
     inkscape:window-width="3840"
     inkscape:window-height="2066"
     inkscape:window-x="-11"
     inkscape:window-y="-11"
     inkscape:window-maximized="1"
     inkscape:current-layer="g8"
     inkscape:document-units="mm" />
  <g
     inkscape:groupmode="layer"
     inkscape:label="Image"
     id="g8">
    <path
       style="fill:#000000;stroke-width:0.666667"
       d="M 326.66667,1044.5796 323,1043.9818 l -3.66667,-1.8242 -3.66666,-1.8242 -1.88721,-2.7303 -1.88721,-2.7303 -0.31245,-3.9364 -0.31245,-3.9364 0.8756,-1.6666 0.8756,-1.6667 2.32406,-1.1656 2.32406,-1.1657 h 6.83333 6.83333 v -7.9679 -7.9679 l -16.88682,-0.1988 -16.88681,-0.1987 -2.34444,-1.7894 -2.34445,-1.7894 -2.7429,-4.617 -2.7429,-4.617 -1.56882,-1.02794 -1.5688,-1.02793 -11.29036,-3.4538 -11.29036,-3.45387 -9.33334,-3.691 -9.33333,-3.69093 -5.11386,-2.5684 -5.11385,-2.56847 -5.58334,-3.2978 -5.58334,-3.2978 -5.96947,-4.6412 -5.96947,-4.64126 -6.05576,-6.24674 -6.05575,-6.24673 -4.22732,-5.33333 -4.22732,-5.33334 -5.15169,-7.85213 -5.1517,-7.85213 -5.3254,-10.4812 -5.32542,-10.48121 -3.03716,-7.66666 -3.03718,-7.66667 -1.68378,-5.8428 -1.6838,-5.84287 -1.11937,-6.15713 -1.11938,-6.1572 0.0165,-10.66667 0.0165,-10.66666 1.44256,-9.66667 1.44257,-9.66667 2.38015,-10.33333 2.38015,-10.33333 2.61863,-8.54687 2.61864,-8.54687 2.64018,-6.62693 2.64016,-6.627 3.27238,-6.52094 3.27238,-6.521 4.02119,-6.01173 4.02119,-6.01173 4.42984,-4.78467 4.42984,-4.7846 5.33919,-4.0232 5.33919,-4.0232 6.10656,-2.95273 6.10655,-2.95274 5,-1.41506 5,-1.41507 8.66667,-0.36087 8.66666,-0.36086 6.30727,1.10053 6.30727,1.1006 6.02606,2.0156 6.02607,2.01553 4.33333,2.40347 4.33334,2.4034 4.66666,3.13287 4.66667,3.1328 6.31881,5.1322 6.31882,5.1322 9.79046,8.95953 9.79047,8.9596 5.84217,-1.38753 5.84216,-1.38754 6.71522,-0.53326 6.71522,-0.53334 6.45498,0.59414 6.45498,0.5942 4.54502,1.38446 4.54502,1.38454 4.01094,2.21986 4.01093,2.21994 3.17387,2.79373 3.17388,2.7938 2.90402,4.094 2.90402,4.09407 2.33076,4.66666 2.33076,4.66667 2.09917,6.56654 2.09917,6.56653 1.39259,6.43347 1.39259,6.43346 1.36294,2.2528 1.36293,2.25287 3.39239,1.54547 3.39238,1.54553 4.33333,0.69667 4.33333,0.6966 h 154.66667 154.66667 l 4.33333,-0.6966 4.33333,-0.69667 3.3924,-1.54553 3.39234,-1.54547 1.363,-2.25287 1.36293,-2.2528 1.39253,-6.43346 1.3926,-6.43347 2.0992,-6.56653 2.09914,-6.56654 2.3308,-4.66667 2.33073,-4.66666 2.904,-4.09407 2.90407,-4.094 3.17386,-2.7938 3.17387,-2.79373 4.01093,-2.21994 4.01094,-2.21986 4.545,-1.38454 4.54506,-1.38446 6.45494,-0.5942 6.455,-0.59414 6.7152,0.53334 6.71526,0.53326 5.8662,1.39327 5.8662,1.3932 7,-6.5068 7,-6.50687 6.08527,-5.22306 6.0852,-5.223 4.66667,-3.56214 4.66666,-3.5622 5.89694,-3.69086 5.897,-3.69087 5.29813,-2.0432 5.29807,-2.04313 5.80493,-1.46647 5.80493,-1.4664 11.33334,0.034 11.33333,0.034 5.96713,1.82093 5.96707,1.821 5.36627,2.7898 5.3662,2.78987 5.1124,3.8498 5.1124,3.84987 4.32126,4.66726 4.3212,4.66734 4.12727,6.026 4.12733,6.02606 4.53727,9.46447 4.53727,9.46453 2.66126,7.66667 2.6612,7.66667 2.368,8.66667 2.368,8.66666 1.66407,8 1.66407,8 1.0112,7.66667 1.01126,7.66667 0.42767,6.33333 0.4276,6.33333 -0.79073,8 -0.79074,8 -1.85873,7.33334 -1.8588,7.33333 -2.45927,6.66667 -2.4592,6.66666 -5.24513,10.66667 -5.24507,10.66667 -5.08713,7.64513 -5.08713,7.64507 -5.05327,6.35493 -5.0532,6.35487 -8.0804,8 -8.0804,8 -4.153,3 -4.153,3 -5.83613,3.50647 -5.83607,3.50653 -7.16667,3.1164 -7.16666,3.11647 -0.0147,5.04373 -0.0147,5.04373 -1.21406,2.6724 -1.214,2.6724 -2.42927,2.13287 -2.4292,2.13287 -2.7034,0.728 -2.7034,0.72793 -22.13867,-0.19993 -22.13873,-0.19987 -2.5426,-1.36967 -2.5426,-1.36966 -2.8022,2.8022 -2.8022,2.80213 -2.84833,0.767 -2.8484,0.76697 -22.47347,-0.1995 -22.47353,-0.19947 -2.44594,-1.4456 -2.44586,-1.4456 -1.144,1.26413 -1.144,1.26407 -3.37434,1.68157 -3.37433,1.6814 h -12.5592 -12.55927 l -1.77826,1.1667 -1.77827,1.1667 -16.36493,0.3333 -16.36494,0.3333 v 7.6667 7.6667 l 7.33334,0.3699 7.33333,0.3699 1.76007,0.8704 1.76013,0.8704 0.82127,1.5346 0.82133,1.5346 -0.2816,4.2251 -0.28153,4.2251 -1.62727,2.4552 -1.62727,2.4553 -2.59493,1.6827 -2.595,1.6826 -3.74427,0.862 -3.74426,0.8622 h -30.66667 -30.66667 l -3.70855,-1.149 -3.70855,-1.149 -2.29145,-1.5184 -2.29145,-1.5184 -1.83333,-3.6188 -1.83333,-3.6188 v -2.5803 -2.5802 l 1.04428,-2.0194 1.04428,-2.0195 2.26764,-0.9474 2.26764,-0.9475 h 6.68808 6.68808 v -8.0569 -8.0569 l -4.5,0.3757 -4.5,0.3757 -7.13312,0.4205 -7.13312,0.4204 -3.7307,-1.1734 -3.73072,-1.1735 -3.45564,-2.4142 -3.45564,-2.4142 -1.97525,-3.86227 -1.97524,-3.86233 -5.70529,0.24453 -5.70528,0.24447 -4,1.10946 -4,1.10954 -5.64918,0.69006 -5.64918,0.69 h -8.03498 -8.03498 l -5.64917,-0.69066 -5.64918,-0.69067 -4.84077,-1.30933 -4.84078,-1.30934 h -4.88702 -4.88702 l -1.93887,3.7886 -1.93887,3.7886 -3.13412,2.25044 -3.13411,2.2504 -3.68257,1.2943 -3.68256,1.2943 h -6.22054 -6.22054 l -3.96278,-1.3538 -3.96278,-1.3538 -3.09556,-2.2677 -3.09555,-2.26774 -1.77881,-3.63573 -1.7788,-3.63573 -21.7424,-0.49414 -21.74242,-0.49413 -6.0499,0.3568 -6.0499,0.3568 -3.1713,1.12553 -3.1713,1.12547 -4.16203,4.52147 -4.16203,4.5215 -2.13356,1.0809 -2.13356,1.081 H 399.3663 384.66653 v 8 8 h 6.68808 6.68808 l 2.22479,0.9296 2.22479,0.9295 1.08713,1.5522 1.08713,1.552 v 3.5449 3.5449 l -1.27228,2.4734 -1.27227,2.4735 -1.8944,1.782 -1.89438,1.7819 -2.66667,1.02 -2.66667,1.0198 -3.95577,0.6982 -3.95577,0.6981 -27.37756,-0.078 -27.37756,-0.078 -3.66667,-0.5978 z m 57.42618,-4.5726 6.4262,-0.6254 2.74296,-1.0975 2.74296,-1.0975 1.63765,-1.9462 1.63766,-1.9463 0.4449,-2.3715 0.4449,-2.3716 -1.10866,-1.1088 -1.10866,-1.1088 h -38.80971 -38.80972 l -1.83333,0.5127 -1.83333,0.5127 v 2.5554 2.5553 l 1.51666,2.2506 1.51666,2.2505 3.30316,1.2265 3.30317,1.2265 5.01351,0.5328 5.0135,0.533 20.66667,0.071 20.66667,0.072 z m 324.00002,0 6.4262,-0.6254 2.74293,-1.0975 2.74293,-1.0975 1.63767,-1.9462 1.63767,-1.9463 0.44493,-2.3715 0.44487,-2.3716 -1.11054,-1.1088 -1.11053,-1.1088 -38.80787,0.029 -38.8078,0.029 -1.83333,0.4841 -1.83333,0.4841 v 2.5554 2.5553 l 1.51666,2.2506 1.51666,2.2506 3.30316,1.2264 3.30317,1.2265 5.01351,0.5329 5.0135,0.5329 20.66667,0.072 20.66667,0.071 6.4262,-0.6253 z m -328.23902,-26.507 0.18719,-8.1666 h -21.68719 -21.68718 v 7.8888 7.889 l 0.45364,0.4536 0.45365,0.4536 21.04635,-0.1758 21.04636,-0.1759 z m 324.00002,0 0.1872,-8.1666 h -21.6872 -21.6872 v 7.8888 7.889 l 0.45364,0.4536 0.45365,0.4536 21.04637,-0.1758 21.04634,-0.1759 z m -181.69384,-13.74177 3.50664,-1.679 1.01566,-0.87293 1.01566,-0.87294 1.48434,-1.92326 1.48434,-1.9232 v -0.5768 -0.57674 H 512.33333 494 v 0.66474 0.66473 l 2.45453,2.71687 2.45452,2.71686 2.53512,1.29334 2.53512,1.2933 2.51036,0.6338 2.51035,0.6338 4.82669,-0.2568 4.82669,-0.2568 z m 125.04337,0.57817 3.53674,-1.0765 2.52464,-2.52467 2.52465,-2.5246 0.3762,-1.43867 0.37621,-1.4386 h -18.60425 -18.60426 v 0.66474 0.66473 l 2.45453,2.71687 2.45452,2.71686 2.53512,1.29334 2.53512,1.2933 2.51036,0.6338 2.51035,0.6338 4.66667,-0.2689 4.66667,-0.269 z m -234.64167,-0.2414 1.56173,-0.4389 4.272,-4.328 4.27199,-4.32807 -4.83372,-0.45113 -4.83373,-0.45114 -18.33333,-0.75166 -18.33334,-0.75174 -18,-1.3042 -18,-1.3042 -10,-1.01773 -10,-1.01773 -6.33333,-0.9942 -6.33333,-0.99414 -6.11766,-1.61886 -6.11766,-1.61887 -4.30714,-1.953 -4.30715,-1.95293 -4.16213,-2.82647 -4.16213,-2.8264 -3.83262,-3.8926 -3.83261,-3.8926 -2.56081,-3.85687 -2.56081,-3.85686 -2.44431,-5 -2.44431,-5 -1.7236,-5.4762 -1.72362,-5.4762 -1.0521,-6.19047 -1.0521,-6.19047 -0.46629,-5.6258 -0.46629,-5.62573 -6.62599,-1.90347 -6.62599,-1.90346 -4.37401,-1.72547 -4.37401,-1.72553 -9.02041,-4.55067 -9.02042,-4.5506 -5.97958,-3.74714 -5.97959,-3.74713 -4.946,-3.71487 -4.946,-3.7148 -5.24392,-5.01 -5.24392,-5.01 -4.57177,-6.056 -4.57178,-6.056 -3.16651,-5.50846 -3.16652,-5.5084 -2.175,-5.78214 -2.17501,-5.78213 -0.49085,3.9286 -0.49084,3.92867 0.40127,8.69526 0.40127,8.69527 1.63814,7 1.63812,7 2.34075,6.66667 2.34075,6.66666 2.41976,5.66667 2.41976,5.66667 3.90767,7.454 3.90767,7.45393 4.02558,6.40494 4.02559,6.40493 4.64616,6.1816 4.64616,6.18153 6.01987,6.3608 6.01988,6.36087 4.5282,3.68187 4.52819,3.68186 5,3.307 5,3.307 5,2.71627 5,2.7162 7.33333,3.12387 7.33334,3.12386 9.66666,3.23294 9.66667,3.23293 5.71326,1.68827 5.71327,1.68826 2.58232,1.87254 2.58233,1.87246 2.72028,4.64274 2.72029,4.64266 2.31746,1.1656 2.31746,1.16564 54.66666,-0.065 54.66667,-0.065 1.56173,-0.4388 z m 306.17927,-1.6849 -2.1872,-2.2566 0.22313,-1.57674 0.22307,-1.57673 18.33333,-0.4438 18.33334,-0.4438 10.66666,-0.7764 10.66667,-0.7764 5.33333,-0.28413 5.33334,-0.28407 L 800,988.9477 l 14.33333,-1.04374 11,-1.31146 11,-1.3114 4.77374,-0.60147 4.77366,-0.60147 9.8828,-1.7282 9.88274,-1.72813 9.34353,-2.2562 9.34353,-2.2562 6.66667,-2.12833 6.66667,-2.12834 0.66666,-0.53533 0.66667,-0.53527 7.3038,-3.11893 7.30387,-3.11893 5.29053,-3.0516 5.2906,-3.0516 5.4056,-3.99 5.4056,-3.98994 7.03,-7.06393 7.02993,-7.06387 5.3574,-6.7262 5.35734,-6.7262 3.803,-5.77473 3.803,-5.7748 3.93633,-7.07847 3.9364,-7.07846 3.30633,-8.08721 3.30634,-8.08726 2.0082,-6.33334 2.00826,-6.33333 1.12787,-5.33333 1.12787,-5.33334 0.35406,-9.07226 0.35407,-9.07227 -0.4838,-3.22593 -0.48373,-3.22594 -2.17787,5.78974 -2.17793,5.7898 -3.16647,5.5084 -3.16653,5.50846 -4.5718,6.056 -4.57174,6.056 -5.24393,5.01 -5.24393,5.01 -4.946,3.7148 -4.946,3.71487 -5.9796,3.74713 -5.9796,3.74714 -9.0204,4.5506 -9.0204,4.55067 -4.374,1.72553 -4.374,1.72547 -6.626,1.9036 -6.626,1.90353 -0.491,5.959 -0.49094,5.959 -1.33733,7.03507 -1.33733,7.03506 -1.60547,4.72034 -1.60547,4.72026 -2.3994,4.781 -2.3994,4.78094 -2.71353,3.99593 -2.7136,3.99587 -3.58767,3.58773 -3.58773,3.58767 -4.1074,2.78933 -4.10747,2.78927 -4.30713,1.95293 -4.30713,1.953 -6.11767,1.61887 -6.11767,1.61886 -6.33333,0.98674 -6.33333,0.9868 -6.33334,0.6822 -6.33333,0.68213 -17,1.3298 -17,1.3298 -12.33333,0.69493 -12.33334,0.695 -15.66666,0.65707 L 727,990.6637 h -18.66667 -18.66666 l -14.4494,0.43633 -14.44939,0.43633 -1.07457,2.81374 -1.07456,2.81373 -1.30938,1.18493 -1.30937,1.185 v 0.56334 0.5633 h 32.46413 32.46407 l -2.1872,-2.25657 z m 53.1502,-2.20587 1.5578,-0.9774 -0.27947,-0.27953 -0.27953,-0.27947 -9.61167,0.647 -9.61166,0.64693 -14.86934,0.45754 -14.86933,0.45753 0.86933,0.57167 0.86934,0.57166 L 748,997.6009 l 22.33333,-0.41927 z m 62.2292,-4.01613 2.14453,-2.14534 -0.3376,-0.3376 -0.3376,-0.3376 -7.96153,0.97967 -7.96153,0.9796 -16.5844,1.30993 -16.58447,1.30987 -0.3854,0.3854 -0.3854,0.3854 23.12447,-0.192 23.1244,-0.19207 z M 591.33333,989.6327 597,988.6909 l 4.33333,-1.29447 4.33334,-1.29447 -30.66667,0.0173 -30.66667,0.0173 2,0.566 2,0.56593 5.57553,1.40747 5.57552,1.40747 6.42448,0.55226 6.42447,0.55227 6.66667,-0.30673 6.66667,-0.30674 5.66666,-0.94173 z m 302.05834,-0.486 2.2556,-1.52 0.8332,-1.64667 0.8332,-1.64667 0.01,-4.12693 0.01,-4.127 -4.57014,1.55447 -4.5702,1.5544 -9.59646,2.38606 -9.59654,2.38614 -9,1.6444 -9,1.6444 -3.48733,0.45953 -3.48727,0.4596 0.38887,0.6292 0.38887,0.6292 1.43173,0.57767 1.4318,0.57766 21.73473,0.042 21.73474,0.042 2.25553,-1.52 z m -359.14667,-2.24554 5.11283,-0.4322 -0.36271,-0.36273 -0.36272,-0.36267 -26.48287,-0.4878 -26.48286,-0.4878 -8.33334,-1.07033 L 469,982.6273 l -18.03042,-3.6372 -18.03042,-3.6372 -8.63625,-1.06127 -8.63624,-1.06127 L 376,972.66403 336.33333,972.09776 328.66667,971.34443 321,970.5911 l -6.66667,-1.32307 -6.66666,-1.32307 -4.90637,-2.3076 -4.90636,-2.30766 -2.60811,-2.0656 -2.6081,-2.06567 -2.90769,-4.0992 -2.90769,-4.0992 -2.33238,-4.66667 -2.33236,-4.66666 -1.67584,-5.33334 -1.67583,-5.33333 -0.81361,-5.07887 -0.8136,-5.07886 0.25231,-4.99647 0.25231,-4.99647 -8.51915,-0.44973 -8.51915,-0.44973 -1.09715,-0.421 -1.09715,-0.42107 0.41676,6.34447 0.41675,6.34446 1.42725,6.5876 1.42724,6.58754 1.67046,4.68073 1.67046,4.68073 2.61193,5.05927 2.61192,5.05933 3.66702,4.44567 3.66702,4.44573 3.81455,3.03754 3.81456,3.03753 5.07694,2.58647 5.07695,2.58646 5.92305,1.67887 5.92306,1.6788 6,1.00693 6,1.00694 10,1.0056 10,1.00566 13,1.00674 13,1.00666 17.33333,1.08454 17.33333,1.08453 46.33334,0.46347 46.33333,0.46346 18.06608,0.12487 18.06608,0.12493 z m 190.755,-0.245 24,-0.676 17.66667,-0.99566 17.66666,-0.99567 13,-1.00733 13,-1.00734 10,-0.9996 10,-0.99953 7.34954,-1.29953 7.3496,-1.29947 5.1598,-1.68433 5.1598,-1.68434 4.4906,-2.2826 4.49066,-2.28253 3.97734,-3.232 3.97733,-3.232 3.4738,-4.305 3.4738,-4.305 2.67287,-5.01747 2.67286,-5.0174 2.04194,-6.0962 2.04193,-6.09613 1.33407,-7.8034 1.33406,-7.8034 v -3.6718 -3.67173 l -0.9892,0.3796 -0.9892,0.3796 -8.51913,0.44973 -8.51913,0.44973 0.25226,4.99647 0.25234,4.99647 -0.8136,5.07886 -0.8136,5.07887 -1.67587,5.33333 -1.6758,5.33334 -2.3324,4.66666 -2.33233,4.66667 -2.90774,4.0992 -2.90766,4.0992 -2.60814,2.06567 -2.60806,2.0656 -4.9064,2.30766 -4.90634,2.3076 -6.66666,1.32307 -6.66667,1.32307 -7.66667,0.75493 -7.66666,0.75487 -39.66667,0.5604 -39.66667,0.5604 -8.63626,1.0656 -8.6362,1.0656 -18.03047,3.6372 -18.0304,3.6372 -8.33333,1.07033 -8.33334,1.07033 -26.66666,0.55347 -26.66667,0.5534 -0.33333,0.17467 -0.33334,0.17466 4,0.44254 4,0.44253 41.33334,0.11147 L 701,987.33223 Z m -61,-5.90733 7,-0.73853 8.92633,-1.39434 8.92634,-1.3944 1.1568,-0.44406 1.1568,-0.44414 -7.4364,-16.95873 -7.43634,-16.9588 -16.9801,-15.51247 -16.9801,-15.51253 H 575 507.66667 l -16.98791,15.5196 -16.98791,15.51967 -7.44842,16.9516 -7.44842,16.95166 0.17198,0.18007 0.17198,0.18013 5.1677,0.98874 5.1677,0.98873 8.09665,1.068 8.09665,1.06793 12.33333,0.523 12.33333,0.52294 73.33334,-0.1828 L 657,981.4873 Z m -167.07739,-5.35753 -2.74406,-1.24614 -1.71814,-2.2526 -1.71814,-2.2526 -0.63751,-2.83733 -0.63751,-2.8374 0.22622,-1.14927 0.22622,-1.14926 0.3733,-1.78194 0.37329,-1.782 1.75072,-2.0806 1.75072,-2.0806 2.55625,-1.30406 2.55624,-1.30414 h 3.04798 3.04797 l 2.15567,0.90067 2.15567,0.90073 2.11988,2.4144 2.11989,2.4144 0.69931,2.51827 0.69932,2.5182 v 1 1 l -0.68857,2.47927 -0.68857,2.47933 -1.78013,2.11553 -1.78014,2.1156 -2.69424,1.2238 L 505,976.63743 h -2.66667 -2.66666 z m 10.09439,-4.06847 2.17439,-1.3438 1.07097,-2.25693 1.07097,-2.25694 v -1.46513 -1.46513 l -1.1133,-2.34614 -1.11332,-2.34613 -2.05335,-1.25213 L 505,955.33836 h -2.58798 -2.58797 l -2.20037,1.35987 -2.20036,1.35993 -1.11471,2.91887 -1.11472,2.9188 0.7518,2.278 0.7518,2.27793 1.81792,1.69347 1.81792,1.69347 1,0.36386 1,0.36387 2.25465,0.0527 2.25464,0.0527 2.17438,-1.34386 z m 21.59839,-28.60487 -1.94872,-1.94873 0.0236,-7.55127 0.0236,-7.55126 0.84798,-1.52767 0.84799,-1.52773 6.82299,-4.63894 6.82299,-4.639 h 32.9167 32.9167 l 6.86162,4.65987 6.86162,4.65993 0.83679,1.50674 0.83679,1.5068 0.0236,7.55126 0.0236,7.55127 -1.94872,1.94873 -1.94871,1.94874 h -44.4359 -44.4359 l -1.94872,-1.94874 z m 89.00788,-2.03473 1.71006,-0.6502 v -6.98393 -6.98394 l -6.26201,-4.36586 -6.26201,-4.36594 H 575 543.19069 l -6.26201,4.36594 -6.26201,4.36586 v 6.98894 6.98886 l 1.5,0.60294 1.5,0.60293 41.12326,0.042 41.12327,0.042 1.71007,-0.65013 z m -154.9566,16.96807 7.66666,-17.64434 15.51832,-14.09626 15.5183,-14.09627 -0.30988,-0.30987 -0.30988,-0.30986 -108.36624,0.0413 -108.36624,0.0413 -1.34219,0.71834 -1.34219,0.71833 v 4.91787 4.91793 l 0.9466,4.89193 0.94661,4.892 1.90067,5.33334 1.90067,5.33333 2.49271,4.45353 2.49272,4.4536 3.38798,3.707 3.38798,3.70694 4.77255,2.35873 4.77255,2.35873 6.33282,1.2832 6.33281,1.2832 6.66667,0.739 6.66666,0.739 39.66667,0.5826 39.66667,0.5826 7,0.726 7,0.72594 8,1.3506 8,1.35053 4,0.89773 4,0.8978 1.66666,0.0493 1.66667,0.0493 z m 241.09326,16.32626 6.5734,-1.3558 6,-0.95206 6,-0.95207 7,-0.73473 7,-0.73474 39.66667,-0.5826 39.66667,-0.5826 6.66666,-0.739 6.66667,-0.739 6.3328,-1.2832 6.3328,-1.2832 4.7726,-2.35873 4.77253,-2.35873 3.388,-3.70694 3.38794,-3.707 2.49273,-4.4536 2.49273,-4.45353 1.90067,-5.33333 1.90067,-5.33334 0.94993,-4.9096 0.95,-4.90953 0.0717,-4.71113 0.0717,-4.71114 -1.075,-0.78613 -1.07507,-0.78607 L 798.8334,911.2599 731,911.00003 l -41.2672,0.33333 -41.26721,0.33334 15.60054,14.17013 15.60054,14.17013 7.66666,17.64434 7.66667,17.6444 1.09327,0.0187 1.09326,0.0187 6.5734,-1.3558 z m -424.63546,-66.8936 -0.35152,-0.916 -0.45594,-5.25066 -0.45594,-5.25061 0.77444,-10 0.77445,-10 1.98685,-11.66666 1.98684,-11.66667 2.31906,-9.62087 2.31905,-9.6208 2.08403,-7.04586 2.08402,-7.0458 3.11705,-7.70554 3.11704,-7.70553 3.28805,-5.61747 3.28805,-5.61746 5.66667,-5.71654 5.66666,-5.71653 4.79968,-2.47914 4.79968,-2.47913 5.20032,-1.3618 5.20032,-1.36173 7.33334,-0.007 7.33333,-0.007 4.38142,1.37793 4.38142,1.37794 3.95191,2.5736 3.95192,2.5736 3.36503,3.60293 3.36503,3.60287 2.04768,3 2.04768,3 2.67634,5.33333 2.67634,5.33334 2.0079,6 2.00789,6 1.70751,7.66666 1.7075,7.66667 1.32411,9.33333 1.32411,9.33334 1.03782,11.66666 1.03781,11.66667 0.67699,11.66667 0.677,11.66667 -0.43532,4.83333 -0.43533,4.83333 H 405.24138 414 v -0.55046 -0.55047 l -1.76105,-1.6162 -1.76106,-1.6162 -1.92432,-4.19333 -1.92433,-4.19327 -1.29525,-7.80674 -1.29526,-7.80666 -1.36308,-19 -1.36308,-19 -0.9994,-9.33334 -0.99941,-9.33333 -0.58245,-3.33333 -0.58246,-3.33334 -2.08519,-8.95226 -2.0852,-8.9522 -2.07051,-6.0478 -2.0705,-6.04774 -1.84681,-3.66667 -1.8468,-3.66666 -3.07113,-4.16747 -3.07112,-4.16747 -4.07837,-3.00233 -4.07837,-3.00233 -3.01458,-1.33347 -3.01458,-1.33347 -3.74118,-1.01133 -3.74118,-1.01127 -6.71624,-0.4126 -6.71623,-0.41253 -5.6171,0.78727 -5.61709,0.78726 -6.33334,1.689 -6.33333,1.68907 -2.70946,0.95867 -2.70946,0.95866 -5.04604,3.31267 -5.04604,3.31267 -4.75357,5.09006 -4.75356,5.09007 -3.66526,5.50853 -3.66524,5.50854 -4.00224,7.91427 -4.00224,7.9142 -3.92736,10 -3.92736,10 -3.01622,9.33333 -3.01621,9.33333 -2.08759,8.29027 -2.08759,8.29033 -1.61368,9.52554 -1.61368,9.5256 -0.77139,11.058 -0.77138,11.058 0.72434,0.7244 0.72434,0.72433 4.20178,0.4772 4.20178,0.47727 5.90466,0.0912 5.90466,0.0912 z m 606.77193,0.2904 4.8964,-0.56713 0.6964,-0.6964 0.6964,-0.6964 -0.75913,-10.87387 -0.75914,-10.87387 -1.35933,-8.33333 -1.3594,-8.33333 -2.2946,-9.5216 -2.2946,-9.5216 -3.7332,-11.3546 -3.7332,-11.35467 -3.32633,-8.12373 -3.32634,-8.1238 -3.901,-7.7886 -3.90106,-7.7886 -3.71107,-5.63521 -3.71107,-5.6352 -4.72233,-5.05666 -4.72233,-5.0566 -4.56187,-3.03274 -4.56193,-3.03273 -3.2238,-1.26667 -3.22387,-1.26666 -6.33333,-1.69334 -6.33334,-1.6934 -5.61706,-0.78726 -5.61714,-0.78727 -6.7162,0.41253 -6.71626,0.4126 -4,1.07294 -4,1.07286 -4.66667,2.439 -4.66667,2.439 -4,4.038 -4,4.038 -2.22186,3.7548 -2.22187,3.7548 -1.9748,4.85267 -1.9748,4.8526 -1.5544,5.69054 -1.55433,5.6906 -1.7266,7.33333 -1.72654,7.33333 -0.9912,7.66667 -0.9912,7.66667 -1.06013,14 -1.06013,14 -0.94654,11.33333 -0.9466,11.33333 -0.96573,5 -0.96573,5 -1.3974,3.71954 -1.39747,3.7196 -2.328,2.71973 -2.328,2.71974 v 0.39406 0.394 h 8.7528 8.7528 l -0.44007,-4.5 -0.44013,-4.5 0.70387,-12.66667 0.7038,-12.66666 1.00993,-11 1.00993,-11 1.33574,-9.33334 1.33573,-9.33333 1.68747,-7.66667 1.68746,-7.66666 2.03247,-6 2.03247,-6 2.6718,-5.33334 2.67186,-5.33333 2.04767,-3 2.04767,-3 3.365,-3.60287 3.36506,-3.60293 3.95194,-2.5736 3.95186,-2.5736 4.38147,-1.37794 4.3814,-1.37793 7.33333,0.007 7.33334,0.007 5.20033,1.36173 5.20033,1.3618 4.6182,2.4268 4.61827,2.42687 4.37253,4.0066 4.37254,4.00666 2.93926,4.11894 2.9392,4.119 3.28254,6.63287 3.28253,6.63293 1.7436,4.66667 1.74367,4.66666 1.7004,5.66667 1.7004,5.66667 1.9316,7.66666 1.93153,7.66667 2.0174,10.3422 2.0174,10.3422 1.09993,8.32447 1.09994,8.32446 0.0933,10.33334 0.0934,10.33333 -0.51187,1.83334 -0.51186,1.83333 5.17933,-0.0293 5.1794,-0.0293 4.8964,-0.56713 z M 392.13362,906.12943 393,905.2589 l -0.0965,-11.12947 -0.0965,-11.1294 -1.11116,-13.33334 -1.11117,-13.33333 -1.3176,-10 -1.3176,-10 -1.61949,-8.03967 -1.6195,-8.0396 -2.00352,-6.13106 -2.00353,-6.131 -2.26883,-4.9106 -2.26883,-4.9106 -2.83339,-4.17234 -2.83338,-4.17233 -3.80802,-3.74934 -3.80802,-3.7494 -3.65391,-1.84866 -3.6539,-1.84874 -5.28753,-1.087 -5.28753,-1.087 -6.13722,0.76667 -6.13722,0.7666 -4.52945,1.6976 -4.52944,1.69753 -3.6413,2.4084 -3.64128,2.40847 -3.20967,3.2952 -3.20966,3.29527 -2.72814,4.01733 -2.72814,4.0174 -3.19285,6.7534 -3.19285,6.75347 -2.72368,8.33333 -2.72368,8.33334 -2.29841,9.33333 -2.29841,9.33333 -1.66317,8.66667 -1.66317,8.66667 -1.0748,7.30113 -1.0748,7.30107 -0.38141,9.69893 -0.3814,9.69887 0.62195,2.33333 0.62195,2.33334 1.62479,0.83413 1.62479,0.83413 52.46696,-0.16746 52.46695,-0.16747 z m 337.96645,-0.9792 3.7668,-1.8498 1.83033,-2.39973 1.83033,-2.39967 1.51274,-4.7636 1.51273,-4.76354 0.74247,-5.32026 0.74253,-5.32027 1.64947,-22 1.64953,-22 0.6648,-5.31587 0.66487,-5.3158 v -1.5346 -1.53466 l -1.9736,1.0206 -1.9736,1.0206 -4.5264,1.0916 -4.5264,1.09153 H 575 416.33333 l -4.52638,-1.09153 -4.52639,-1.0916 -1.97361,-1.0206 -1.97362,-1.0206 v 1.53466 1.5346 l 0.6487,5.3158 0.64868,5.31587 1.69688,22.66667 1.69688,22.66666 0.99331,5.8658 0.99331,5.86574 1.2724,3.6202 1.2724,3.6202 1.43228,2.01147 1.43229,2.01146 2.97684,1.74454 2.97683,1.74453 3.4796,0.51393 3.4796,0.51394 149,-0.0893 149,-0.0892 z m 136.37633,0.65613 1.19027,-1.19373 -0.0593,-10.80627 -0.0593,-10.80633 -1.14707,-8 -1.147,-8 -1.66566,-8.66667 -1.66567,-8.66667 -2.71287,-10.666 -2.71286,-10.66593 -2.9206,-8.5266 -2.9206,-8.5266 -2.75094,-5.47413 -2.751,-5.47407 -2.55913,-3.7708 -2.55913,-3.7708 -3.20967,-3.29527 -3.20967,-3.2952 -3.64133,-2.40847 -3.64127,-2.4084 -4.52946,-1.69753 -4.5294,-1.6976 -6.13727,-0.7666 -6.1372,-0.76667 -5.28753,1.087 -5.28754,1.087 -3.6242,1.83367 -3.6242,1.83367 -3.8292,3.6892 -3.8292,3.68913 -3.33966,5.11587 -3.33974,5.11593 -2.4648,5.8796 -2.46486,5.8796 -1.92214,6.83354 -1.92213,6.83346 -1.71193,10.1404 -1.712,10.1404 -1.297,12.6928 -1.29707,12.69274 -0.78527,14.66666 -0.78533,14.66667 0.61573,2.997 0.61574,2.997 1.97946,0.43014 1.97954,0.43013 51.80973,-0.0938 51.80973,-0.0938 1.19027,-1.19367 z m -611.71287,-10.52673 0.4302,-10.2796 1.11276,-7.33334 1.11276,-7.33333 1.64296,-7.66667 1.64296,-7.66666 1.98236,-7.16154 1.98236,-7.16146 2.39413,-7.17187 2.39414,-7.1718 3.02361,-7.66667 3.02362,-7.66666 3.53998,-7.5118 3.53998,-7.5118 3.68207,-6.15487 3.68207,-6.15487 4.30026,-5.42413 4.30026,-5.42414 4.55833,-3.68146 4.55833,-3.6814 5.15591,-2.77987 5.15591,-2.77987 -5.48924,-5.1738 -5.48925,-5.17373 -5.66667,-4.96827 -5.66666,-4.96833 -3.33334,-2.6994 -3.33333,-2.69947 -5.4418,-3.7878 -5.4418,-3.78773 -6.22487,-2.938 -6.22486,-2.93793 -5.33334,-1.34947 -5.33333,-1.34947 -6.16667,-0.74713 -6.16666,-0.74707 -6.16667,0.74934 -6.16667,0.74933 -6,2.00633 -6,2.00634 -4.16997,2.32806 -4.16997,2.328 -5.04663,4.0598 -5.04663,4.0598 -4.05768,4.71454 -4.05767,4.71453 -3.47876,5.35787 -3.47877,5.35786 -2.40744,4.8044 -2.40744,4.8044 -2.59316,6.52894 -2.59316,6.52893 -2.43896,7.56787 -2.43896,7.56793 -2.22484,9.09874 -2.22483,9.0988 -1.15601,6.47066 -1.156,6.47067 1.1422,5.196 1.14221,5.196 2.27008,5.52113 2.27008,5.52107 2.71785,4.47373 2.71785,4.47367 3.07399,4.33853 3.074,4.33854 6.36931,6.3602 6.36931,6.3602 5.66667,4.2024 5.66667,4.2024 7.13898,4.2494 7.139,4.24933 5.31362,2.67167 5.31364,2.67167 5.62834,2.3298 5.62834,2.32986 5.5857,1.64914 5.58571,1.64906 0.66667,-0.183 0.66666,-0.183 z m 651.83067,7.63527 6.92753,-2.27427 8.07247,-3.8632 8.07247,-3.86327 7.84486,-4.76167 7.84487,-4.76166 5.15513,-3.83587 5.15514,-3.83587 6.66666,-6.69286 6.66667,-6.69287 4.09767,-6.01247 4.09766,-6.01246 2.6774,-5.32087 2.6774,-5.32087 1.3336,-4 1.3336,-4 0.78407,-4.02786 0.78413,-4.02787 -1.0818,-6.30547 -1.0818,-6.30546 -2.60246,-10.33334 -2.60247,-10.33333 -3.40747,-9.9516 -3.40753,-9.95167 -3.57627,-7.5238 -3.57633,-7.5238 -3.61713,-5.54907 -3.61707,-5.54913 -4.18447,-4.86187 -4.18453,-4.86193 -4.93193,-3.9192 -4.93194,-3.9192 -4.1578,-2.32127 -4.15786,-2.32126 -6,-2.00634 -6,-2.00633 -6.16667,-0.74933 -6.16667,-0.74934 -6.16666,0.74707 -6.16667,0.74713 -5.33333,1.34947 -5.33334,1.34947 -6.08173,2.87013 -6.08173,2.8702 -4.2516,2.85753 -4.2516,2.85754 -4.32894,3.3916 -4.32893,3.39166 -6.0044,5.26314 -6.0044,5.26306 -5.48927,5.1848 -5.4892,5.1848 5.10547,2.7538 5.10547,2.75387 4.28653,3.41093 4.2866,3.41094 3.27993,3.94126 3.27994,3.94127 3.28213,4.86387 3.28213,4.86386 3.3282,6.24887 3.32814,6.24887 3.652,8.396 3.652,8.396 3.68113,10.7152 3.68107,10.7152 2.35666,8.55547 2.3566,8.55546 1.6756,8.37594 1.67554,8.37593 1.00833,8.62 1.00833,8.61993 v 6.72634 6.72633 l 0.43234,0.43227 0.43226,0.43233 1.7344,-0.39333 1.73434,-0.39333 z M 518,668.33335 v -17 h 1 1 v 17 17 h -1 -1 z m 767.3333,0 v -17 h 1 1 v 17 17 h -1 -1 z m -848.40789,10.38227 -1.40792,-0.60453 -1.42541,-1.81207 -1.42541,-1.81213 v -2.79587 -2.79587 l 4.03347,-5.78089 4.03347,-5.78091 h 1.29986 1.29986 v 0.41068 0.41069 l -2.39011,3.25598 -2.39011,3.25599 h 2.08988 2.08989 l 1.94713,1.0069 1.94713,1.0069 0.68643,1.2826 0.68643,1.2826 v 2.7 2.69993 l -1.85496,2.07607 -1.85496,2.07606 -2.97837,0.2612 -2.97838,0.26114 z m 7.24126,-3.24627 1.16666,-1.00933 v -2.51493 -2.51494 l -1.75657,-1.38173 -1.75657,-1.38173 h -1.48686 -1.48685 l -1.75657,1.38173 -1.75658,1.38173 v 2.1366 2.1366 l 1.00587,1.43607 1.00586,1.43607 1.49414,0.2334 1.49413,0.23346 1.33334,-0.28186 L 443,676.47862 Z m 19.33754,3.21374 -1.49578,-0.637 -1.33506,-2.18967 -1.33505,-2.18973 -0.001,-5.33334 -10e-4,-5.33333 1.16563,-2.33333 1.16563,-2.33334 2.57188,-0.83967 2.57188,-0.83967 2.6252,0.70688 2.62518,0.7069 1.33353,2.13278 1.33352,2.13278 -0.19726,6.4862 -0.19726,6.48614 -1.75487,1.75353 -1.75486,1.75353 -2.9118,0.25367 -2.9118,0.25367 -1.49579,-0.637 z m 7.87673,-4.47494 L 472,672.57989 v -4.86667 -4.86672 l -1.38172,-1.75657 -1.38172,-1.75658 H 467 464.76344 l -1.38172,1.75658 L 462,662.8465 v 4.87872 4.87873 l 0.76299,1.6746 0.763,1.6746 1.737,0.58807 1.73701,0.58813 1.88094,-0.64646 1.88094,-0.64647 z m 78.28573,4.49494 -1.33334,-0.54567 -1.06533,-1.2454 -1.06533,-1.24533 -0.41375,-1.16667 -0.41374,-1.16667 h 1.28895 1.28896 l 0.67605,1.2632 0.67605,1.2632 2.03286,0.70867 2.03285,0.70867 1.14789,-0.40654 1.14788,-0.40653 1.16666,-1.002 1.16667,-1.002 v -2.52553 -2.52554 l -1.48167,-1.0378 -1.48167,-1.0378 h -2.14565 -2.14566 l -0.41202,0.66667 -0.41202,0.66667 h -1.72018 -1.72018 l 0.4204,-3.5 0.4204,-3.5 0.006,-2.16667 0.006,-2.16667 h 6 6 v 1 1 h -4.59534 -4.59534 l -0.40466,1.05453 -0.40466,1.05452 v 2.12976 2.12976 l 2.67316,-0.25493 2.67315,-0.25492 1.64173,0.41204 1.64172,0.41205 1.35178,1.45099 1.35179,1.45094 v 2.91813 2.91813 l -0.72033,1.34594 -0.72032,1.34593 -2.25826,0.9436 -2.25826,0.94353 -1.85475,-0.042 -1.85475,-0.042 -1.33333,-0.54573 z m 754.06313,-0.35027 -1.9369,-1.0478 -0.8752,-1.15253 -0.8753,-1.15247 -0.021,-3.0608 -0.021,-3.06073 3.8821,-5.60591 3.8821,-5.60589 1.4512,-0.21304 1.4513,-0.21303 v 0.37815 0.37816 l -2.3959,3.33488 -2.3958,3.33488 h 2.0956 2.0956 l 1.8372,0.95 1.837,0.95 0.7965,1.74806 0.7965,1.748 v 2.29147 2.2914 l -1.855,2.07607 -1.855,2.07606 -2.9783,0.30147 -2.9784,0.3014 -1.9369,-1.0478 z m 8.2843,-3.7124 0.6526,-1.2194 v -1.99547 -1.9954 l -1.7566,-1.38173 -1.7566,-1.38173 h -1.5396 -1.5396 l -1.8084,1.5556 -1.8084,1.55553 0.062,2.17813 0.062,2.17807 1.1123,1.22907 1.1123,1.22913 1.4304,0.2304 1.4304,0.2304 1.8474,-0.5966 1.8474,-0.59667 0.6526,-1.21933 z M 452,677.33335 v -1.33333 h 1.66667 1.66666 v 1.33333 1.33334 H 453.66667 452 Z m 26.66667,0.5414 v -0.79186 l 6,-6.11834 6,-6.11826 v -1.2748 -1.2748 l -1.0378,-1.48166 -1.03781,-1.48168 h -2.19221 -2.1922 l -1.00199,1.16667 -1.00199,1.16667 -0.41375,1.16666 -0.41374,1.16667 h -1.02093 -1.02092 v -0.96863 -0.96863 l 0.75904,-1.66591 0.75904,-1.66591 2.17505,-1.03213 2.17505,-1.03212 h 0.96643 0.96643 l 2.11974,0.73894 2.11974,0.73894 1.03874,2.00872 1.03874,2.0087 -0.4295,2.28948 -0.42951,2.28948 -4.71425,4.96287 -4.71424,4.96287 h 5.08475 5.08475 v 1 1 H 486 478.66667 Z m 59.85214,-8.24506 -0.18548,-9.03701 -2.66666,2.01846 -2.66667,2.01845 -0.42867,0.0185 -0.42868,0.0185 -0.3646,-0.95015 -0.36461,-0.95014 3.59801,-2.71652 3.59801,-2.71652 h 1.36193 1.36194 v 10.66666 10.66667 h -1.31452 -1.31452 l -0.18548,-9.037 z m 26.14786,7.8164 v -1.2206 l 5.66666,-5.44347 L 576,665.33855 v -1.95498 -1.95498 l -1.08292,-1.08292 -1.08292,-1.08292 -2.41708,0.20197 -2.41708,0.20197 -1,2.15224 -1,2.15224 -1.23894,0.0144 -1.23894,0.0144 0.44647,-1.83334 0.44648,-1.83333 1.60248,-1.62821 1.6025,-1.6282 h 3.44744 3.44746 l 1.57586,1.83205 1.57586,1.83205 v 2.70604 2.70605 l -5.11561,5.25675 -5.11561,5.2568 h 5.44894 5.44894 v 1 1 H 572 564.66667 v -1.2206 z m 18.66666,-0.11274 v -1.33333 H 585 h 1.66667 v 1.33333 1.33334 H 585 583.33333 Z m 10,0.96 v -0.37333 l 2.38908,-3.12667 2.38908,-3.12666 -2.22241,-0.37654 -2.22241,-0.3766 -1.48472,-0.8054 -1.48472,-0.80533 -0.68195,-1.27427 -0.68195,-1.2742 v -2.6206 -2.62058 l 1.34376,-1.70832 1.34376,-1.70831 2.25578,-0.74447 2.25579,-0.74448 1.90045,0.46834 1.90046,0.46834 1.49387,0.9672 1.49387,0.9672 0.69193,2.56963 0.69193,2.56963 -0.94922,2.27182 -0.94921,2.2718 -3.45674,4.75254 -3.45673,4.7526 h -1.27985 -1.27985 z m 5.56179,-9.7002 1.62452,-0.74013 0.74018,-1.62455 L 602,664.60395 v -0.87872 -0.87873 l -1.38172,-1.75657 -1.38172,-1.75658 h -2.21109 -2.21109 l -1.5183,1.22945 -1.5183,1.22945 v 2.20939 2.2094 l 1.81495,1.56118 1.81496,1.56113 h 0.93145 0.93145 z m 17.77155,2.07354 v -8 h 0.94444 0.94444 l 0.2541,0.76226 0.25408,0.76227 1.42431,-0.76227 1.42431,-0.76226 H 623.95617 626 l 1.41202,1.41202 1.41203,1.41202 0.4213,-0.64555 0.42132,-0.64555 1.45617,-0.76648 1.45617,-0.76646 h 1.62059 1.62059 l 1.75657,1.38172 1.75657,1.38172 v 6.61829 6.61827 h -1 -1 v -5.66667 -5.66667 L 636,666.00002 634.66667,664.66669 H 633.33333 632 l -1.33333,1.33333 -1.33334,1.33333 v 5.66667 5.66667 H 628 626.66667 v -5.89667 -5.89667 l -1.21916,-1.10334 -1.21916,-1.10332 h -1.34418 -1.34418 l -1.10333,1.21916 -1.10333,1.21917 v 5.7808 5.78087 H 618 616.66667 Z m 28,0 v -8 h 0.94444 0.94444 l 0.2541,0.76226 0.25408,0.76227 1.42431,-0.76227 1.42431,-0.76226 h 1.95392 1.95392 l 1.60482,1.26235 1.60482,1.26235 1.55894,-1.26235 1.55894,-1.26235 h 2.14327 2.14327 l 1.54106,1.64038 1.54109,1.6404 0.3326,6.35962 0.33267,6.3596 h -1.42414 -1.4242 v -5.51834 -5.51833 l -1.0378,-1.48166 -1.0378,-1.48167 h -1.50144 -1.50145 l -1.29409,0.94586 -1.29408,0.94585 -0.233,6.05415 -0.233,6.05414 h -0.86526 -0.86526 l -0.23507,-5.59714 -0.23508,-5.59713 -1.26999,-1.40288 -1.27,-1.40285 H 651 649.53999 l -1.10333,1.21916 -1.10333,1.21917 v 5.7808 5.78087 H 646 644.66667 Z m 574.66663,7.17986 v -0.82013 l 5.7778,-5.80467 5.7778,-5.8047 v -2.00632 -2.00633 l -0.8874,-1.06923 -0.8874,-1.06924 -2.3816,0.20038 -2.3815,0.20038 -1.3422,2.14098 -1.3421,2.14099 -0.8334,0.0257 -0.8333,0.0257 v -1.69696 -1.69698 l 1.5922,-1.59218 1.5921,-1.59218 2.3001,-0.43149 2.3001,-0.43149 2.4098,1.0069 2.4098,1.00689 0.5886,2.21375 0.5884,2.21374 -0.5256,1.88545 -0.5256,1.88542 -4.5139,4.78127 -4.5138,4.7812 5.1489,0.19473 5.1489,0.19467 v 0.972 0.97193 h -7.3333 -7.3334 v -0.82013 z m 19.3334,-0.5132 v -1.33333 h 1.3333 1.3333 v 1.33333 1.33334 H 1240 h -1.3333 z m 16.6666,-1.33333 v -2.66667 H 1250 h -5.3333 l 0.028,-1.16666 0.028,-1.16667 4.8463,-6.66667 4.8463,-6.66666 1.7923,-0.21095 1.7922,-0.21095 v 7.04428 7.04428 h 1.6667 1.6666 v 0.9536 0.95367 l -1.5,0.213 -1.5,0.21307 -0.2069,2.5 -0.2069,2.5 h -1.2931 -1.2931 v -2.66667 z m 0,-10 v -5.33333 h -0.25 -0.2501 l -3.4166,4.94228 -3.4166,4.94232 v 0.391 0.39106 h 3.6667 3.6666 z m 69.3334,3.66667 v -9 h -0.5148 -0.5148 l -2.4788,2.04328 -2.4789,2.04328 -0.673,-0.41596 -0.6731,-0.41596 v -0.61182 -0.61182 l 3.3932,-2.68217 3.3932,-2.68217 h 1.2735 1.2735 v 10.66667 10.66667 h -1 -1 z m 15.3333,1 v -8 h 0.9445 0.9444 l 0.2541,0.76226 0.2541,0.76227 1.4243,-0.76227 1.4243,-0.76226 h 2.0438 2.0438 l 1.412,1.41202 1.4121,1.41202 0.4213,-0.64555 0.4213,-0.64555 1.4562,-0.76648 1.4561,-0.76646 h 1.7408 1.7408 l 1.6364,1.63636 1.6364,1.63636 v 6.36361 6.36367 h -1 -1 v -5.66667 -5.66667 l -1.3334,-1.33333 -1.3333,-1.33333 h -1.3333 -1.3334 l -1.3333,1.33333 -1.3333,1.33333 v 5.66667 5.66667 H 1351.3333 1350 v -5.89667 -5.89667 l -1.2191,-1.10334 -1.2192,-1.10332 h -1.3442 -1.3442 l -1.2238,1.35232 -1.2238,1.35234 -0.2965,5.64767 -0.2964,5.64767 H 1340.9164 1340 Z m 28,0 v -8 h 0.9445 0.9444 l 0.2541,0.76226 0.2541,0.76227 1.4243,-0.76227 1.4243,-0.76226 h 1.9539 1.9539 l 1.7566,1.38172 1.7566,1.38172 v -0.60804 -0.60805 l 1.698,-0.77367 1.698,-0.77368 h 1.5982 1.5981 l 1.7901,1.53978 1.7901,1.53978 0.3379,6.46024 0.3379,6.4602 h -1.4241 -1.4242 v -5.66667 -5.66667 l -1.3334,-1.33333 -1.3333,-1.33333 h -1.3333 -1.3334 l -1.3333,1.33333 -1.3333,1.33333 v 5.66667 5.66667 h -0.9164 -0.9164 l -0.2964,-5.64767 -0.2965,-5.64767 -1.2238,-1.35234 -1.2239,-1.35232 h -1.46 -1.46 l -1.1033,1.21916 -1.1033,1.21917 v 5.7808 5.78087 H 1369.3333 1368 Z m -1215.16802,2.49433 -4.83469,-4.82767 -0.42166,-0.4786 -0.42166,-0.47853 4.86902,-5.02143 4.86901,-5.02144 h 1.22067 1.22066 v 1.19453 1.19453 l -3.02841,2.97214 -3.02841,2.97214 131.85262,0.33333 131.85264,0.33333 0.22466,1.16667 0.22467,1.16667 H 284.90499 152.37888 l 3.47723,3.52093 3.47722,3.521 v 1.14567 1.14573 l -0.83333,-0.007 -0.83333,-0.007 -4.83469,-4.82774 z m 836.79442,4.1072 -0.45227,-0.73173 3.41294,-3.45587 L 996,669.62475 v -0.479 -0.47906 H 838.6178 681.2356 l 0.22467,-1.16667 0.22466,-1.16667 157.183,-0.33333 157.183,-0.33333 -3.3588,-3.30828 -3.3588,-3.30827 v -0.54598 -0.54599 l 1.05714,-0.40565 1.05713,-0.40565 4.94287,4.90989 4.94283,4.90986 v 0.70007 0.70006 l -4.84897,4.8166 -4.849,4.81667 h -0.77833 -0.77833 z m 165.2056,-4.1072 -4.8347,-4.82767 -0.4217,-0.4786 -0.4216,-0.47853 4.869,-5.02143 4.869,-5.02144 h 1.2207 1.2206 v 1.14377 1.14377 l -3.038,3.08439 -3.038,3.08439 9.1434,0.4385 9.1434,0.43852 h 16.8946 16.8946 v 1.33333 1.33333 h -26.1416 -26.1416 l 3.1416,3.18954 3.1416,3.1896 v 1.14373 1.1438 l -0.8333,-0.007 -0.8333,-0.007 -4.8347,-4.82774 z m 304.1277,4.1072 -0.4522,-0.73173 3.4129,-3.45587 3.4129,-3.45587 v -0.479 -0.47906 h -31.2222 -31.2222 l -0.4387,-0.43867 -0.4386,-0.43867 0.7425,-0.89466 0.7425,-0.89467 h 31.0623 31.0622 l -3.5568,-3.60155 -3.5568,-3.60156 0.4522,-0.73178 0.4523,-0.73178 h 0.7783 0.7784 l 4.849,4.81665 4.849,4.81662 v 0.70007 0.70006 l -4.849,4.8166 -4.849,4.81667 h -0.7784 -0.7783 z m 21.4388,-9.7586 -0.3985,-0.39847 v -2.27112 -2.27111 l 1.1667,0.22101 1.1666,0.22101 0.2026,2.07611 0.2026,2.0761 -0.9708,0.37254 -0.9707,0.37246 z m -982.65748,-7.0096 0.37436,-2.16667 0.25472,-0.83333 0.25472,-0.83333 h 1.35426 1.35425 v 0.31984 0.31984 l -1.07238,2.68016 -1.07239,2.68016 h -0.91095 -0.91094 z m 4.93475,0.66667 0.009,-1.5 0.40199,-1.5 0.40198,-1.5 h 1.25558 1.25558 v 0.68808 0.68808 l -0.96598,2.31192 -0.96599,2.31192 h -0.70068 -0.70069 l 0.009,-1.5 z m 762.78593,-1.33334 0.205,-2.83333 1.5,-0.21303 1.5,-0.21304 v 0.63162 0.63162 l -1.009,2.41475 -1.0089,2.41475 h -0.6961 -0.696 z m 4.5383,1.91667 v -0.91667 l 0.4167,-2.08333 0.4166,-2.08333 h 1.25 1.25 v 0.786 0.786 l -0.8006,2.214 -0.8006,2.214 h -0.866 H 1270 Z m 210,-7.66177 v -3.34288 l 0.5318,-0.32868 0.5319,-0.32869 0.8447,0.52208 0.8447,0.52209 -0.2098,2.92817 -0.21,2.92818 -1.1666,0.2213 -1.1667,0.2213 z m 0,-12.42156 v -3.76444 l 1.1667,0.22468 1.1666,0.22468 v 3.31508 3.31507 l -1.1666,0.22468 -1.1667,0.22468 z m 0.1299,-12.44404 0.2034,-3.55596 h 1 1 v 3.3242 3.3242 l -1.2034,0.23176 -1.2034,0.23177 z m -453.4065,-7.49884 -4.9099,-4.94288 0.4056,-1.05712 0.4057,-1.05712 h 0.546 0.546 l 3.2832,3.33333 3.2832,3.33333 h 0.5277 0.5278 l -0.01,-160.5 -0.01,-160.50001 v -0.83333 -0.83333 h 0.9287 0.9286 l 0.4047,1.05452 0.4047,1.05452 v 160.42271 160.42271 l 3.6015,-3.55681 3.6016,-3.55682 0.7317,0.45227 0.7318,0.45226 v 0.81067 0.81068 l -4.849,4.81665 -4.849,4.81665 h -0.6676 -0.6678 l -4.9098,-4.94288 z m 208.6099,0.54595 -6.3333,-0.92033 -6.9948,-1.75044 -6.9947,-1.75043 -5.672,-1.98559 -5.6718,-1.98559 -6.7094,-3.21831 -6.7094,-3.21832 -6.2906,-4.2002 -6.2906,-4.20019 -5.3856,-5.35351 -5.3854,-5.3535 -3.049,-4.33333 -3.0489,-4.33334 -2.9917,-6 -2.9918,-6 -2.0073,-6.33333 -2.0074,-6.33333 -1.1949,-6.66667 -1.195,-6.66667 0.021,-14.33333 0.021,-14.33333 1.7711,-11.66667 1.771,-11.66667 2.2779,-10.02274 2.2779,-10.02275 3.0974,-10.97726 3.0974,-10.97725 4.231,-12.66667 4.2309,-12.66666 3.9961,-10.66667 3.996,-10.66667 13.1318,-33.33333 13.1318,-33.33334 2.8576,-7.66666 2.8577,-7.66667 3.6775,-11.33333 3.6774,-11.33334 1.7911,-8 1.7911,-8 1.0135,-7.66666 1.0134,-7.66667 -0.3315,-12 -0.3316,-12 -1.4616,-7.33334 -1.4616,-7.33333 -2.0222,-6.33333 -2.0223,-6.33334 -2.5973,-6.53593 -2.5972,-6.53594 -7.0347,-15.05633 -7.0347,-15.05632 -2.0255,-6.04599 -2.0256,-6.04599 -0.3521,-7.69508 -0.352,-7.69509 0.7698,-7.85789 0.7698,-7.85789 1.0616,-2.65301 1.0614,-2.653 2.9342,-2.58278 2.9342,-2.58279 3.8224,-1.46491 3.8224,-1.46491 1.3334,-0.5206 1.3333,-0.52061 1.5517,-6.58747 1.5517,-6.58747 2.5969,-8 2.5969,-8.000001 2.5833,-5.333333 2.5832,-5.333334 1.9072,-2.261533 1.9073,-2.261534 2.6942,-1.223826 2.6943,-1.223824 4.6666,-0.0082 4.6667,-0.0082 7.6667,1.63727 7.6666,1.637267 14.6667,2.99728 14.6667,2.997286 9,1.049314 9,1.04932 13,0.401646 13,0.401654 7.7765,-0.765914 7.7766,-0.765906 6.2571,-1.58726 6.2572,-1.587254 4.8722,-2.073293 4.8721,-2.073293 7.3575,-4.432934 7.3574,-4.432934 3.4033,-1.325009 3.4034,-1.325011 4,-0.06351 4,-0.06351 2.8479,1.620207 2.8478,1.620207 1.9336,3.035749 1.9336,3.03575 1.4489,4.333334 1.4488,4.333333 0.9364,4.891981 0.9363,4.89198 v 2.599653 2.59966 l 2.8334,1.753907 2.8333,1.753913 2.227,2.087787 2.2271,2.087787 1.9347,3.804608 1.9347,3.8046 0.9838,5.86206 0.9837,5.86207 0.6867,17.66667 0.6868,17.66666 v 4.11654 4.11655 l 5.8333,5.11045 5.8333,5.11044 1.3334,2.09676 1.3333,2.09675 0.3333,15.00959 0.3334,15.00959 h 7.6666 7.6667 l 0.3456,-7.33333 0.3457,-7.33333 0.9299,-1.66667 0.9299,-1.66667 1.0578,-0.81213 1.0578,-0.81213 3.8598,-0.0212 3.86,-0.0212 2.5756,1.31399 2.5756,1.31399 2.0155,2.44512 2.0155,2.44512 1.2156,4.40756 1.2157,4.40756 v 30.66666 30.66667 l -1.149,3.70855 -1.149,3.70855 -1.5184,2.29145 -1.5183,2.29145 -3.6189,1.83333 -3.6188,1.83334 -2.7138,-0.01 -2.7138,-0.01 -1.6667,-0.83278 -1.6666,-0.83278 -1.1656,-2.32406 -1.1657,-2.32406 v -6.83334 -6.83333 h -8 -8 l -0.01,16.16667 -0.01,16.16667 -1.5545,2.71806 -1.5545,2.71806 2.5557,3.18546 2.5558,3.18546 0.7041,2.6149 0.7041,2.61491 -1.9904,13.79956 -1.9905,13.79957 0.2203,0.22029 0.2203,0.2203 6.2395,0.94975 6.2395,0.94976 1.3799,0.0119 1.38,0.0119 0.8079,-6.06811 0.8079,-6.06812 1.277,-2.50312 1.277,-2.50312 1.9642,-0.81358 1.9642,-0.8136 3.0563,0.45833 3.0563,0.45833 2.9186,1.85088 2.9186,1.85089 1.5748,3.24227 1.5749,3.24228 0.2458,6.33334 0.2457,6.33333 -3.7138,25.82257 -3.7139,25.82257 -1.3891,4.17744 -1.3892,4.17742 -1.5953,2.44606 -1.5953,2.44606 -2.4396,1.86078 -2.4396,1.86077 -4.26,0.27126 -4.2601,0.27126 -2.0247,-0.83867 -2.0247,-0.83866 -1.0584,-2.04673 -1.0584,-2.04673 0.4773,-5.6927 0.4773,-5.6927 0.1125,-1.98098 0.1126,-1.98099 -7.5178,-1.06441 -7.5177,-1.06442 -0.301,1.37874 -0.3009,1.37873 -2.0057,14.19379 -2.0057,14.1938 -0.7571,1.47287 -0.7571,1.47287 -1.6254,1.74516 -1.6254,1.74516 -6.2417,2.5225 -6.2417,2.5225 -0.4622,5.54828 -0.4621,5.54829 -0.9276,0.76981 -0.9275,0.76982 -4.0784,-0.80238 -4.0784,-0.80238 -0.4631,0.54996 -0.463,0.54995 -2.8659,7.98578 -2.866,7.98578 -5.9574,14.01422 -5.9573,14.01422 -7.5907,15.33334 -7.5908,15.33333 -4.755,8.33333 -4.7551,8.33334 -7.5833,11.33333 -7.5834,11.33333 -5.7669,7.20019 -5.7669,7.20019 -6.8282,7.46648 -6.8284,7.46648 -5.6059,5.02397 -5.606,5.02398 -3.6667,3.06856 -3.6666,3.06857 -6.5214,4.41079 -6.5214,4.41078 -5.1453,2.57568 -5.1453,2.57569 -5.0361,1.72815 -5.0362,1.72815 -5.8845,1.02617 -5.8845,1.02618 -8.4127,-0.0716 -8.4126,-0.0716 -6.3334,-0.92033 z m 23.1104,-4.31573 6.3912,-0.71266 5.6681,-1.64255 5.6681,-1.64255 5.5276,-2.63819 5.5275,-2.63819 5.8869,-3.96048 5.8869,-3.96048 5.647,-4.544 5.6469,-4.54398 8.3531,-8.33546 8.353,-8.33547 5.5599,-6.66667 5.5599,-6.66667 4.6515,-6.2006 4.6514,-6.2006 5.675,-8.67153 5.6751,-8.67152 5.6702,-10.12787 5.6702,-10.12788 5.5228,-11.33333 5.5227,-11.33333 3.834,-8.66667 3.8339,-8.66667 4.1471,-10.33333 4.147,-10.33334 3.0971,-9.10486 3.097,-9.10486 3.7409,-19.22847 3.7408,-19.22847 5.318,-27.00001 5.3181,-27 2.8865,-15.66666 2.8864,-15.66667 1.1476,-8.61876 1.1474,-8.61875 -0.4298,-54.71459 -0.43,-54.71457 -0.595,-9.66667 -0.5951,-9.66666 -1.0482,-23.66667 -1.0483,-23.66667 -0.9914,-4.57571 -0.9914,-4.57571 -1.685,-2.87521 -1.685,-2.87521 -2.4859,-2.04908 -2.4859,-2.04908 h -0.3847 -0.3848 l -0.8426,5.01457 -0.8426,5.01456 -2.6187,5.23196 -2.6186,5.23197 -3.049,2.81046 -3.049,2.81045 -4.2831,2.0043 -4.2831,2.00431 -7.6826,1.55981 -7.6826,1.5598 -9.154,1.07701 -9.1541,1.07701 -2.066,0.31322 -2.0661,0.31323 -0.4586,15.822 -0.4586,15.82201 -0.6554,9.33333 -0.6553,9.33334 -0.9935,10 -0.9934,10 -1.7161,13 -1.716,13 -2.6327,16 -2.6326,16 -3.3593,17 -3.3593,17 -3.3208,15 -3.321,15 -4.0374,16.66667 -4.0374,16.66666 -4.633,18.00001 -4.633,18 -9.94,36.66666 -9.9399,36.66667 -4.7047,16.33334 -4.7048,16.33333 -5.2955,17.00414 -5.2954,17.00415 -4.0405,11.32918 -4.0404,11.3292 -4.3783,11 -4.3783,11 -5.628,11.6499 -5.628,11.6499 -3.9737,6.79839 -3.9737,6.7984 v 0.6653 0.66532 l 4.1667,0.38606 4.1667,0.38606 2,0.23378 2,0.23378 2.1929,0.0999 2.1929,0.0999 z m -22.6927,-8.45283 3.8821,-6.50118 4.7676,-9.44985 4.7676,-9.44986 4.0098,-9.55015 4.0097,-9.55014 3.996,-10.66667 3.996,-10.66667 4.6965,-14.33333 4.6966,-14.33333 4.0016,-13.33334 4.0015,-13.33333 4.3223,-15.33334 4.3224,-15.33333 9.1178,-33.66667 9.1178,-33.66666 7.2221,-28.66667 7.2221,-28.66667 5.0222,-22.66667 5.0224,-22.66666 3.0615,-16 3.0615,-16.00001 2.3219,-14.21888 2.3219,-14.21889 1.9507,-15.44778 1.9507,-15.44778 1.0358,-11.86498 1.0357,-11.86497 0.5901,-16.46837 0.5902,-16.46835 -0.3499,-3.49161 -0.3499,-3.49162 -1.416,0.29404 -1.416,0.29404 -10,0.70082 -10,0.70082 -11,0.64898 -11,0.64898 -21.6666,0.76353 -21.6667,0.76354 -15,-0.4011 -15,-0.4011 -5.6667,-0.70875 -5.6666,-0.70874 -3.8526,-1.06582 -3.8525,-1.06581 -1.7343,-2.06119 -1.7344,-2.0612 0.3974,-5.15373 0.3974,-5.15373 -1.6212,0.61636 -1.6211,0.61636 -2.5227,1.29358 -2.5227,1.29359 -1.4179,1.56488 -1.4179,1.56488 -0.7329,2.33333 -0.7328,2.33334 -0.576,8.66666 -0.576,8.66667 0.4906,5.004 0.4906,5.004 0.784,2.91146 0.7839,2.91146 2.8997,6.75121 2.8998,6.75121 4.6141,9.66666 4.6142,9.66667 3.3756,8.33333 3.3756,8.33334 1.7178,5.66666 1.7177,5.66667 1.3156,6.33333 1.3155,6.33334 0.7765,7.66666 0.7764,7.66667 -0.3944,9.01665 -0.3944,9.01666 -1.0784,7.31668 -1.0784,7.31668 -2.2893,9 -2.2894,9 -3.9586,11.76959 -3.9587,11.76958 -15.4266,39.23042 -15.4266,39.23041 -4.5112,12.33334 -4.5112,12.33333 -3.3805,10.33333 -3.3805,10.33334 -3.0498,10.79906 -3.0496,10.79908 -1.9306,8.53426 -1.9304,8.53427 -1.3834,8.18555 -1.3835,8.18555 -0.7657,7.81445 -0.7658,7.81445 0.3845,11.66666 0.3845,11.66667 1.2907,6 1.2908,6 1.7933,5.33333 1.7934,5.33334 3.0718,5.83488 3.0718,5.83489 4.1192,5.20923 4.119,5.20922 4.472,3.79385 4.472,3.79384 3.79,2.57296 3.7899,2.57297 6.6667,3.3448 6.6666,3.3448 6,2.14673 6,2.14672 7.3334,1.84641 7.3333,1.84641 0.4344,-0.24767 0.4345,-0.24767 z M 1411.3333,436.42434 V 434.182 l 0.6756,-3.56201 0.6755,-3.56202 1.3188,-14.02898 1.3188,-14.02898 0.01,-0.83333 0.01,-0.83333 h -0.5418 -0.5418 l -2.2236,11.83333 -2.2236,11.83333 -1.8284,8.33334 -1.8284,8.33333 0.7605,0.48979 0.7605,0.48979 1.8333,0.0102 1.8333,0.0102 v -2.24234 z m 14.3334,-13.67134 2,-1.15359 0.7843,-1.63303 0.7843,-1.63303 2.3245,-15.66667 2.3245,-15.66667 3.3152,-23 3.3153,-23 2.1663,-16.09437 2.1664,-16.09438 -0.4352,-1.57229 -0.4352,-1.57229 -2.6559,-3 -2.6559,-3 -3.166,1.78556 -3.166,1.78558 -0.1951,0.94177 -0.1951,0.94178 4.5284,0.93932 4.5285,0.93932 0.1915,1.33606 0.1916,1.33606 -6.3576,20.66394 -6.3577,20.66394 -6e-4,0.41667 -5e-4,0.41666 2,0.4 2,0.4 -0.01,0.85 -0.01,0.85 -4.2652,21.58973 -4.2651,21.58973 -0.8886,0.5492 -0.8887,0.5492 -1.5055,-0.37787 -1.5056,-0.37786 v 0.57227 0.57227 l -0.9793,10.66667 -0.9793,10.66667 -0.3746,3.16595 -0.3746,3.16595 3.5229,-1.37933 3.5229,-1.37933 2,-1.15359 z m 40.769,-16.42541 1.628,-1.06669 1.3163,-2.13044 1.3164,-2.13045 1.3125,-4.33333 1.3124,-4.33333 3.3644,-23.33334 3.3643,-23.33333 0.09,-5.66667 0.09,-5.66667 -0.7971,-2.39003 -0.797,-2.39004 -1.9102,-1.83009 -1.9102,-1.83009 -2.6412,-0.35426 -2.6412,-0.35425 -0.504,1.24104 -0.504,1.24106 -1.2722,7.66666 -1.2723,7.66667 -3.271,23 -3.271,23 -0.9795,7.87425 -0.9796,7.87425 0.3287,1.25671 0.3287,1.25671 1.0982,0.32093 1.0982,0.32093 2.2372,-0.25475 2.2372,-0.25475 z m -41.8697,-31.46694 3.7108,-18.80604 -0.3051,-0.27219 -0.305,-0.2722 -2.3867,-0.43072 -2.3867,-0.43072 -3.5534,18.17561 -3.5533,18.17562 -0.2912,1.11616 -0.2911,1.11616 1.8978,0.2904 1.8979,0.29041 0.9275,-0.0732 0.9276,-0.0732 z m 30.7673,11.25044 v -0.5556 l 2.9578,-20.59777 2.9578,-20.59776 -0.1828,-0.18273 -0.1827,-0.18273 -7.7771,-1.10629 -7.7771,-1.10629 -0.263,0.27572 -0.2631,0.2757 -2.7588,19.33334 -2.7588,19.33333 -0.3414,1.73778 -0.3414,1.73778 6.8653,1.01132 6.8653,1.01133 1.5,0.0842 1.5,0.0842 z m -28.768,-41.94441 2.0023,-6.5 4.1628,-13.49785 4.1628,-13.49785 -0.3435,-0.34348 -0.3434,-0.34347 -2.5274,-0.15867 -2.5274,-0.15868 -3.52,18.89932 -3.5201,18.89933 -0.4017,1.60067 -0.4018,1.60068 h 0.6276 0.6276 z m 8.7864,-47.31882 1.6483,-1.15214 1.5868,-1.34786 1.5867,-1.34785 0.9133,-2.14525 0.9132,-2.14526 v -53.93808 -53.93808 l -0.4205,-2.10217 -0.4204,-2.10218 -3.1454,-3.01442 -3.1453,-3.01442 -1.5018,-1.0519 -1.5018,-1.0519 0.5676,18.25183 0.5676,18.25183 v 46.50015 46.50016 l 0.3517,-1.6e-4 0.3516,-1.5e-4 z m 39.9158,-23.81378 1.8678,-0.96592 1.103,-1.68327 1.1029,-1.68327 1.0575,-3.8508 1.0576,-3.85081 0.3418,-22 0.3418,-22 -0.6866,-8.36156 -0.6866,-8.36156 -1.1234,-2.80759 -1.1234,-2.80759 -1.9462,-1.63766 -1.9463,-1.63766 -2.3715,-0.4449 -2.3716,-0.4449 -1.1088,1.10885 -1.1088,1.10885 v 39.47619 39.4762 l 0.479,1.16666 0.4791,1.16667 h 2.3874 2.3873 z m -12.6008,-40.70074 v -21.66667 h -8 -8 v 21.66667 21.66667 h 8 8 z m -171.2419,-99.68094 16.9085,-0.68094 15.6667,-0.99805 15.6667,-0.99805 5.6043,-0.42738 5.6043,-0.42738 -0.4356,-17.0603 -0.4355,-17.060297 -0.4395,-6.554407 -0.4396,-6.554413 -6.3959,0.529153 -6.3959,0.52916 -12.4362,-0.09092 -12.4363,-0.09092 -7.8971,-0.747427 -7.897,-0.747433 -10.1202,-1.625213 -10.1201,-1.625221 -11.8799,-2.633313 -11.8798,-2.633313 -5.8846,-1.09448 -5.8846,-1.094474 -2.6592,0.449274 -2.6592,0.449266 -2.2618,2.261887 -2.262,2.261887 -2.3036,4.838787 -2.3037,4.838786 -2.0898,6.301454 -2.0897,6.301453 -2.6575,10.031884 -2.6575,10.03188 -0.6275,2.33333 -0.6275,2.33333 -0.016,2.86736 -0.016,2.86734 2.1666,0.89408 2.1667,0.89408 3.6719,0.75233 3.672,0.75233 6.328,0.56123 6.3281,0.56123 17.7581,0.0917 17.7582,0.0917 16.9085,-0.68094 z m 80.2419,-6.07407 9.3333,-1.29945 5.3979,-1.26935 5.3979,-1.26935 3.6021,-1.60132 3.6021,-1.60132 2.6945,-2.70838 2.6945,-2.70838 1.7497,-3.22706 1.7496,-3.22705 1.1279,-4.33333 1.128,-4.333337 -0.051,-4.666667 -0.051,-4.666666 -1.0386,-6.000001 -1.0386,-6 -1.0736,-3.333333 -1.0738,-3.333334 -1.2126,-2.41614 -1.2128,-2.416139 -2.0804,-1.750527 -2.0801,-1.750527 h -2.5908 -2.5909 l -3.1913,1.262965 -3.1913,1.262965 -7.0884,4.304257 -7.0884,4.304253 -5.8671,2.456007 -5.8671,2.456013 -4.308,1.082134 -4.308,1.082126 0.4358,8.061307 0.4358,8.061307 0.3836,14.999997 0.3837,15 0.2458,0.80566 0.2459,0.80566 3.5315,-0.36676 3.5315,-0.36677 z m -1153.00003,495.12423 -6.33334,-0.91276 -5.64628,-1.44643 -5.64629,-1.44644 -4.02038,-1.36623 -4.02038,-1.36623 -5.77752,-2.84288 -5.77753,-2.84288 -3.88914,-2.53136 -3.88914,-2.53136 -6,-6.04132 -6,-6.04132 -2.86798,-5.09575 -2.86798,-5.09575 -2.26656,-6.34155 -2.26656,-6.34154 -1.36526,-7.22938 -1.36527,-7.22936 -0.66116,-7.66667 -0.66116,-7.66667 -0.006,-8.34471 -0.006,-8.34471 0.67957,-10.65529 0.67957,-10.65529 1.00831,-9.66666 1.00832,-9.66667 1.01302,-7.66667 1.01304,-7.66667 2.34762,-14 2.34762,-14 3.65701,-17.66666 3.65701,-17.66667 5.60492,-23.75478 5.60492,-23.75478 5.97657,-23.24522 5.97656,-23.24522 3.42783,-12.66667 3.42784,-12.66667 3.98635,-14 3.98635,-14 3.27654,-10.66667 3.27654,-10.66666 4.61715,-13.66667 4.61714,-13.66667 3.33044,-8.66666 3.33043,-8.66667 3.78162,-8.66667 3.78162,-8.66666 4.68448,-9 4.68448,-9.00001 4.29748,-6.4792 4.29748,-6.47921 5.21024,-5.52079 5.21024,-5.5208 1.48524,-4 1.48525,-4 2.04513,-4.66666 2.04512,-4.66667 2.60517,-4.12698 2.60517,-4.12698 3.98514,-3.68953 3.98514,-3.689537 6.14683,-4.055113 6.14683,-4.055107 10.33334,-5.20776 10.33333,-5.20776 8.33333,-3.358981 8.33334,-3.35898 7.33333,-2.420413 7.33333,-2.420414 9.66667,-2.626212 9.66667,-2.626212 12.30672,-2.719003 12.30673,-2.719002 6.35994,-0.958746 6.35994,-0.958745 3,0.0076 3,0.0076 4.56185,0.966547 4.56186,0.966547 7.04757,3.366552 7.04757,3.366551 7.39058,4.279832 7.39057,4.279827 3.33333,0.8755 3.33334,0.875494 h 122 122 l 3.33333,-0.875494 3.33333,-0.8755 7.33334,-4.238353 7.33333,-4.238355 5.34947,-2.661697 5.34953,-2.661698 4.15613,-1.400096 4.15614,-1.400097 4.82766,-0.386036 4.82774,-0.386038 6.677,1.02075 6.677,1.020751 12.323,2.722609 12.323,2.722609 9.70066,2.634524 9.70074,2.634527 8.6326,2.920254 8.63266,2.92026 7.5904,3.120973 7.59034,3.120974 9.743,4.93884 9.74293,4.938847 6.33333,4.156573 6.33334,4.15658 4.7076,4.713818 4.7076,4.71381 3.36833,6.66667 3.36827,6.66667 1.86553,5 1.86553,5 5.203,5.52079 5.203,5.52079 4.40487,6.61671 4.40493,6.6167 6.14767,12.19583 6.1476,12.19584 5.51427,13.81751 5.5142,13.81751 6.2508,18.84916 6.25073,18.84916 5.0088,17.33333 5.00887,17.33334 4.07226,15 4.07227,15 5.99373,23.33333 5.99374,23.33334 5.34606,22.66666 5.346,22.66667 2.56354,12 2.56353,12 2.0394,10.66667 2.0394,10.66667 1.97307,12.33333 1.97313,12.33333 1.03827,8.33334 1.03826,8.33333 0.99953,11 0.9995,11 0.4214,13 0.4214,13 -0.764,9.53148 -0.764,9.53148 -1.36156,7.05572 -1.36167,7.05573 -2.2578,6.31705 -2.2578,6.31704 -2.86793,5.09575 -2.868,5.09575 -6,6.04132 -6,6.04132 -3.88913,2.53136 -3.88914,2.53136 -5.77753,2.84288 -5.77753,2.84288 -4.0204,1.36623 -4.02034,1.36623 -5.313,1.326 -5.31293,1.326 -5,0.89221 -5,0.89222 -13,-0.01 -13,-0.01 -5.66667,-1.1767 -5.66666,-1.1767 -6.45774,-2.03705 -6.45773,-2.03706 -9.20893,-4.50585 -9.20894,-4.50586 -9,-6.04136 -9,-6.04136 -8.66666,-6.97369 -8.66667,-6.97368 -6.66667,-5.83576 -6.66666,-5.83576 -16,-14.80216 -16,-14.80217 -8.66667,-7.86457 -8.66667,-7.86458 -8.66666,-6.98098 -8.66667,-6.98097 -7.90933,-5.30301 -7.90934,-5.30302 -5.32313,-2.67641 -5.32313,-2.6764 -6.76754,-2.2551 -6.76753,-2.25509 -6.66667,-1.33419 -6.66666,-1.33418 -7,-1.01536 -7,-1.01535 -11.66667,-0.99549 -11.66667,-0.99548 -16.66666,-0.79986 -16.66667,-0.79985 h -45.33333 -45.33334 l -16.66666,0.79985 -16.66667,0.79986 -11.66667,0.99548 -11.66666,0.99549 -7,1.01535 -7,1.01536 -6.66667,1.33418 -6.66667,1.33419 -6.76754,2.25509 -6.76754,2.2551 -5.23246,2.63476 -5.23246,2.63476 -7,4.62929 -7,4.62929 -6.66666,5.20512 -6.66667,5.20513 -6.65103,5.73802 -6.65102,5.738 -21.01564,19.40876 -21.01564,19.40876 -6.66667,5.84695 -6.66667,5.84695 -8.66666,6.95649 -8.66667,6.95649 -8.82503,5.94038 -8.82502,5.94038 -9.17498,4.53802 -9.17497,4.538 -5.55939,1.83674 -5.55939,1.83672 -6.44061,1.37288 -6.44061,1.37287 -11.66667,0.24079 -11.66666,0.24079 -6.33334,-0.91276 z m 12.73272,-5.716 6.60884,-1.34679 6.2337,-2.25652 6.23371,-2.2565 6.59551,-3.27696 6.59552,-3.27694 6.20626,-3.85128 6.20625,-3.85128 6.79375,-5.03384 6.79374,-5.03384 9.33333,-7.80588 9.33333,-7.80588 5.66667,-5.20975 5.66667,-5.20974 19,-18.10213 19,-18.10213 9.33333,-8.53636 9.33333,-8.53636 8.66667,-6.96309 8.66667,-6.96308 7.66666,-5.19749 7.66667,-5.19748 6,-3.00926 6,-3.00926 5.83769,-2.06014 5.83768,-2.06014 5.49565,-1.32015 5.49565,-1.32015 7.66666,-1.3333 7.66667,-1.33329 10,-1.0107 10,-1.0107 9.66667,-0.69374 9.66666,-0.69375 16.66667,-0.65261 16.66667,-0.6526 H 575 618.33333 L 635,462.66761 l 16.66667,0.65417 10,0.70161 10,0.70162 9.66666,1.00786 9.66667,1.00786 7.66667,1.32671 7.66666,1.3267 5.49567,1.32015 5.4956,1.32015 5.83773,2.06014 5.83767,2.06014 6,3.00926 6,3.00926 7.66667,5.19789 7.66666,5.19789 7.66667,6.13762 7.66667,6.13761 6.33333,5.68279 6.33333,5.6828 23,21.78125 23,21.78125 5.66667,5.20926 5.66667,5.20925 9.33333,7.80588 9.33333,7.80588 6.79374,5.03384 6.79373,5.03384 6.20627,3.85201 6.20626,3.85201 7.28014,3.61114 7.28013,3.61114 6.79107,2.22458 6.79106,2.22459 5.46367,1.03644 5.46367,1.03645 4.79846,-0.67359 4.79847,-0.67359 6.69607,-1.60645 6.69606,-1.60645 4.31267,-1.62328 4.31267,-1.62329 4.3246,-2.1746 4.3246,-2.1746 4.83746,-3.33417 4.8374,-3.33416 4.07147,-4.35237 4.0714,-4.35237 2.32707,-3.63773 2.327,-3.63774 1.90226,-4.61304 1.90227,-4.61304 1.34167,-4.81075 1.34166,-4.81075 1.17627,-6.66666 1.1762,-6.66667 -0.0127,-21 -0.0127,-21 -1.18147,-11.33333 -1.18147,-11.33334 -1.3214,-9.66666 -1.3214,-9.66667 -1.6534,-10 -1.65333,-10 -2.69913,-13.66667 -2.69907,-13.66667 -2.61613,-11.80568 -2.61614,-11.8057 -4.3808,-18.52764 -4.3808,-18.52765 -5.99346,-23.33333 -5.99347,-23.33333 -5.00307,-18.33334 -5.00306,-18.33333 -4.02954,-13.66667 -4.02946,-13.66667 -3.49607,-11 -3.49607,-11 -3.5066,-10 -3.5066,-10 -3.85046,-9.66666 -3.85054,-9.66667 -3.13966,-6.97338 -3.13974,-6.97339 -3.43893,-6.33223 -3.43893,-6.33223 -4.2656,-4.54702 -4.26567,-4.54701 -5.73433,-4.20563 -5.7344,-4.20563 -6.33334,-3.84277 -6.33333,-3.84277 -10.66667,-5.21802 -10.66666,-5.21803 -7,-2.78985 -7,-2.78984 -9.77914,-3.54197 -9.7792,-3.54198 -12.2208,-3.68505 -12.22086,-3.68506 -8,-1.98812 -8,-1.98812 -6,-1.12939 -6,-1.129387 -6.33334,0.0079 -6.33333,0.0079 -3.73687,1.423946 -3.73686,1.423941 -3.26314,2.06917 -3.26313,2.06917 -30,30.16804 -30,30.16805 -4.5724,3.44573 -4.5724,3.44574 -4.45551,2.24375 -4.45551,2.24376 -4.23978,1.39185 -4.23978,1.39185 -5.73231,0.9822 -5.73231,0.9822 -9.66667,0.68085 -9.66666,0.68085 H 574.99993 529.6666 l -9.66667,-0.68085 -9.66666,-0.68085 -5.73231,-0.9822 -5.73231,-0.9822 -4.23978,-1.39185 -4.23978,-1.39185 -4.45551,-2.24376 -4.4555,-2.24375 -4.57241,-3.44206 -4.5724,-3.44206 -29.66667,-29.89014 -29.66667,-29.89014 -4.20876,-2.65629 -4.20876,-2.65629 -3.4579,-1.154374 -3.45791,-1.154387 -6,0.03287 -6,0.03287 -6,1.125133 -6,1.125138 -9,2.25714 -9,2.25715 -12.33333,3.76374 -12.33334,3.76374 -11.49091,4.27809 -11.49091,4.27808 -7.17576,3.05791 -7.17575,3.05791 -7.84314,3.99116 -7.84315,3.99117 -6.9468,4.21243 -6.94681,4.21242 -5.21005,3.96627 -5.21005,3.96626 -4,4.29483 -4,4.29483 -3.75957,6.96856 -3.75957,6.96856 -3.82454,8.66666 -3.82453,8.66667 -2.33489,6 -2.33489,6 -3.93645,11 -3.93645,11 -4.61414,14.66667 -4.61414,14.66666 -4.30864,15.00001 -4.30864,15 -5.34188,20 -5.34186,20 -4.34532,17 -4.3453,17 -4.33164,18.33333 -4.33163,18.33334 -2.65821,12 -2.65821,12 -2.00859,10 -2.00858,10 -2.01279,11.33333 -2.01279,11.33333 -1.36246,9.5719 -1.36247,9.57189 -1.37227,12.76144 -1.37228,12.76144 -0.37886,17.69565 -0.37886,17.69565 0.8027,7.78559 0.8027,7.78559 1.56957,6.94628 1.56957,6.94628 2.08546,5.2082 2.08546,5.20819 2.29616,3.7799 2.29617,3.77989 4.29558,4.63963 4.29558,4.63962 4.87409,3.36026 4.87408,3.36025 4.66666,2.33409 4.66667,2.3341 4.69321,1.68554 4.69322,1.68554 7.64012,1.69481 7.64012,1.69481 2.33333,0.26338 2.33333,0.26338 0.89528,0.10668 0.89528,0.1067 6.60883,-1.3468 z m 221.0939,-170.37488 -5.17338,-0.93535 -4.15996,-1.38734 -4.15995,-1.38734 -4.66667,-2.25288 -4.66666,-2.25289 -4.33334,-2.84595 -4.33333,-2.84594 -5.72849,-5.68532 -5.72849,-5.68532 -2.68161,-4 -2.68161,-4 -2.66247,-5.33334 -2.66248,-5.33333 -1.41004,-4.33333 -1.41005,-4.33334 -1.01738,-5.92066 L 394,381.15869 v -5.82534 -5.82535 l 1.00069,-5.92066 1.0007,-5.92066 1.40359,-4.33334 1.40359,-4.33333 2.5184,-5.0894 2.51841,-5.0894 2.77418,-4.08516 2.77418,-4.08517 4.13646,-4.43924 4.13647,-4.43923 5.28696,-3.93259 5.28696,-3.93259 6.25742,-3.00327 6.25742,-3.00326 6.45562,-1.69206 6.45562,-1.69204 9,-0.3306 9,-0.3306 6.19112,1.07648 6.19111,1.07647 4.71849,1.64854 4.71849,1.64854 5.58589,2.97153 5.58589,2.97152 4.17117,3.17573 4.17117,3.17573 4.22365,4.3667 4.22364,4.3667 2.96321,4.45336 2.96321,4.45336 2.93246,6.2133 2.93247,6.21332 1.53815,5.66666 1.53816,5.66667 v 12.33334 12.33333 l -1.53816,5.66667 -1.53815,5.66666 -2.91038,6.1667 -2.91039,6.1667 -3.199,4.76802 -3.199,4.76803 -4.70036,4.73195 -4.70036,4.73194 -5.15794,3.55028 -5.15794,3.55029 -5.48496,2.55103 -5.48498,2.55102 -3.1939,1.06669 -3.1939,1.06669 -5.72676,0.99867 -5.72676,0.99866 -7.41267,-0.0598 -7.41267,-0.0598 -5.17338,-0.93535 z M 481,441.186 l 3.33333,-0.9386 0.33334,-19.95703 0.33333,-19.95702 0.77159,-1.3408 0.77158,-1.34079 1.46384,-1.32587 1.46384,-1.32588 20.43124,-0.33333 20.43124,-0.33333 0.83881,-3.33334 0.8388,-3.33333 0.71687,-6.44705 0.71687,-6.44704 -0.72422,-5.88629 -0.72422,-5.88629 -0.83145,-3.33333 -0.83146,-3.33334 -20,-0.33333 -20,-0.33333 -1.5,-0.85679 -1.5,-0.85679 -1.16666,-1.77886 L 485,350.39539 484.66667,330.40734 484.33333,310.41929 481,309.49077 l -3.33333,-0.92852 -9.08406,-0.36394 -9.08407,-0.36394 -4.5826,0.77624 -4.58261,0.77623 -2.16666,0.69162 L 446,310.77008 v 19.64807 19.64807 l -1.01129,1.95561 -1.01128,1.95561 -1.95561,1.01128 -1.95561,1.01129 h -19.67408 -19.67407 l -0.65006,2.5 -0.65006,2.5 -0.70897,3.95577 L 398,368.91156 v 6.42179 6.42178 l 0.70897,3.95578 0.70897,3.95577 0.65006,2.5 0.65006,2.5 h 19.67407 19.67408 l 1.95561,1.01129 1.95561,1.01128 1.01128,1.95561 1.01129,1.95561 v 19.67301 19.67301 l 2.5,0.72368 2.5,0.72367 3,0.60159 3,0.60158 10.33333,-0.2362 10.33334,-0.23621 z m -40.18519,-41.33413 -1.20641,-1.20642 -18.75147,0.17728 -18.75148,0.17728 2.22541,4.80386 2.2254,4.80386 2.55094,3.8628 2.55093,3.86282 5.3376,5.58216 5.3376,5.58216 4.01651,2.8692 4.01651,2.86921 5.65016,2.73266 5.65016,2.73265 0.17728,-18.82155 0.17728,-18.82156 z m 54.1646,36.19616 5.41012,-2.61865 4.26575,-3.14026 4.26574,-3.14026 3.20356,-2.99655 3.20356,-2.99656 3.61911,-4.74454 3.6191,-4.74453 2.6493,-5 2.6493,-5 0.44578,-1.5 0.44579,-1.5 h -18.71159 -18.7116 L 490,400.00001 l -1.33333,1.33334 v 18.66666 18.66667 h 0.45131 0.45131 z m -54.07218,-85.27885 1.11388,-1.23082 -0.17722,-18.78654 -0.17722,-18.78652 -5.65016,2.73265 -5.65016,2.73266 -4.01651,2.88124 -4.01651,2.88123 -5.40802,5.57014 -5.40802,5.57012 -2.33413,3.66667 -2.33413,3.66667 -1.79018,3.54164 -1.79018,3.54165 -0.61784,1.62502 -0.61783,1.62502 h 18.88017 18.88018 z m 87.38362,-0.26917 -0.46567,-1.5 -2.17344,-4.33333 -2.17345,-4.33334 -3.16472,-4.29384 -3.16472,-4.29384 -3.05932,-3.27066 -3.05932,-3.27065 -5.22579,-3.93776 -5.2258,-3.93776 -5.50467,-2.66441 -5.50466,-2.66441 h -0.45131 -0.45131 v 18.66667 18.66666 l 1.33333,1.33334 1.33333,1.33333 h 18.7116 18.71159 z m 150.52262,84.77331 -5.5198,-0.52177 -5.295,-1.339 -5.29504,-1.339 -5.26486,-2.28154 -5.26485,-2.28156 -4.58696,-2.97247 -4.58696,-2.97247 -4.0844,-3.40526 -4.0844,-3.40526 -4.44178,-5.54415 -4.44178,-5.54416 -3.64397,-7.33333 -3.64397,-7.33334 -1.69442,-6.66666 -1.69441,-6.66667 -0.39736,-7.70371 -0.39736,-7.70371 1.13782,-6.80466 1.13782,-6.80465 1.56832,-4.61107 1.56833,-4.61108 3.05287,-5.88056 3.05288,-5.88056 3.32238,-4.4106 3.32239,-4.41061 4.33929,-4.05919 4.33929,-4.0592 4.02776,-2.7352 4.02776,-2.7352 6.14681,-2.96424 6.1468,-2.96425 6.6456,-1.67935 6.64566,-1.67934 6.68767,-0.40604 6.68773,-0.40605 6,0.78478 6,0.78478 4,1.07677 4,1.07678 5.77434,2.459 5.77426,2.459 5.67614,3.77675 5.67613,3.77675 5.0792,5.11232 5.07927,5.11232 2.99053,4.49836 2.99053,4.49837 2.9316,6.21331 2.9316,6.21331 1.4444,5.33333 1.4444,5.33334 0.33234,10.33333 0.33233,10.33334 -1.31493,6.33333 -1.31494,6.33333 -2.0844,5.38513 -2.08446,5.38513 -3.4958,5.92095 -3.49587,5.92095 -6.33333,6.43082 -6.33334,6.43081 -4,2.67263 -4,2.67262 -4.66666,2.33031 -4.66667,2.33031 -4.0316,1.37918 -4.0316,1.37918 -5.30173,1.00386 -5.30174,1.00386 -5,0.27468 -5,0.27467 z m 20.06813,-3.68048 5.21493,-0.9863 5.50047,-1.99032 5.50053,-1.99031 4.95127,-2.91034 4.9512,-2.91032 4.64927,-3.92002 4.64926,-3.92002 3.91327,-4.64926 3.91327,-4.64927 2.5684,-4.33333 2.56846,-4.33334 2.12114,-5.32444 2.12113,-5.32444 1.31093,-6.34222 1.311,-6.34223 -0.31266,-9.66667 -0.3126,-9.66667 -1.77654,-5.93359 -1.7766,-5.93359 -2.2568,-4.88456 -2.2568,-4.88456 -3.49413,-5.05446 -3.4942,-5.05446 -6.1344,-5.79406 -6.1344,-5.79405 -5.2552,-3.0813 -5.25513,-3.0813 -4.44654,-1.75184 -4.4466,-1.75185 -5.88673,-1.46633 -5.8868,-1.46634 -9.66667,0.0371 -9.66666,0.0371 -6.61907,1.75412 -6.61909,1.75412 -6.15414,2.99382 -6.15415,2.99382 -5.32449,4.01212 -5.32448,4.01212 -3.42352,3.74587 -3.42352,3.74587 -2.9928,4.19404 -2.9928,4.19404 -2.69851,5.75847 -2.69851,5.75847 -1.7369,6.47054 -1.7369,6.47054 0.0184,10.33334 0.0184,10.33333 1.36642,5.02054 1.36641,5.02053 2.07262,5.37448 2.07262,5.37449 3.94459,5.9876 3.94458,5.98761 4.6779,4.72451 4.67789,4.72452 4.30187,3.06975 4.30187,3.06975 6.23435,2.94724 6.23434,2.94722 5.49707,1.41967 5.497,1.41967 5.503,0.51134 5.50293,0.51134 4.33334,-0.26557 4.33333,-0.26557 5.21493,-0.98629 z m -20.21493,-7.63765 -5,-0.56917 -6.44547,-2.08381 -6.44546,-2.08382 -4.88787,-2.88381 -4.88787,-2.88381 -4.38983,-3.64917 -4.38984,-3.64917 -3.44298,-4.57621 -3.44298,-4.57621 -2.63134,-5.03289 -2.63134,-5.0329 -1.81359,-5.9671 -1.81359,-5.96711 -0.0432,-10 -0.0432,-10 1.16468,-4.33333 1.16467,-4.33334 1.42577,-3.66666 1.42577,-3.66667 3.06381,-5.24521 3.06381,-5.24521 3.85673,-4.21587 3.85673,-4.21586 4.14327,-3.13339 4.14327,-3.13338 6,-2.90196 6,-2.90197 5.33333,-1.44334 5.33334,-1.44334 h 9.66666 9.66667 l 5.06227,1.38579 5.06226,1.38579 4.48214,2.0323 4.48213,2.0323 4.61593,3.06864 4.61587,3.06863 4.0418,4.04183 4.04187,4.04182 2.54073,3.74455 2.54073,3.74455 2.49267,4.95344 2.49267,4.95345 1.5978,6.29871 1.5978,6.2987 v 7.94262 7.94263 l -1.04494,5.13856 -1.04486,5.13856 -2.23474,5.21236 -2.2348,5.21236 -2.22033,3.67197 -2.22033,3.67197 -4.57187,4.96662 -4.57193,4.96662 -4.19907,2.99641 -4.19913,2.99641 -5.64434,2.64503 -5.64433,2.64503 -5.58467,1.28232 -5.58466,1.28232 -5.33334,0.32079 -5.33333,0.32079 -5,-0.56916 z m 20.7698,-5.22964 5.0214,-1.28425 4.50193,-2.04129 4.502,-2.04128 4.1024,-2.92934 4.10247,-2.92934 3.8888,-3.91668 3.88873,-3.91669 3.0514,-4.58369 3.0514,-4.58369 1.82673,-4.48885 1.8268,-4.48886 1.21294,-5.26079 1.213,-5.26079 -0.0907,-7.33333 -0.0907,-7.33334 -1.35314,-5.13231 -1.35313,-5.13231 -2.35867,-5.10498 -2.35866,-5.10498 -3.39594,-4.58092 -3.396,-4.58092 -3.44806,-3.12046 -3.44814,-3.12045 -4.4508,-2.89513 -4.4508,-2.89514 -4.88253,-1.95 -4.88253,-1.95001 -5.63614,-1.13749 -5.63606,-1.13748 -7.0306,0.37252 -7.03054,0.37251 -3.959,1.07303 -3.959,1.07304 -3.89352,1.57267 -3.89353,1.57266 -3.74047,2.23641 -3.74048,2.23641 -5.30177,4.96039 -5.30177,4.96039 -2.66283,3.92119 -2.66283,3.92118 -1.96466,4.19837 -1.96465,4.19837 -1.36087,4.58672 -1.36087,4.58672 -0.36346,7.33334 -0.36345,7.33333 1.01609,5.35602 1.01609,5.356 2.05344,5.31066 2.05344,5.31066 2.77008,4.22914 2.77006,4.22914 3.69336,3.98926 3.69336,3.98927 4.04696,2.86965 4.04695,2.86966 4,1.98582 4,1.98582 3.56107,1.16664 3.561,1.16664 4.77233,0.91102 4.77227,0.91102 6.3742,-0.31331 6.3742,-0.31331 z m -23.72547,-13.08344 -3.95573,-1.0001 -4.927,-2.36979 -4.92698,-2.36979 -4.78398,-4.55479 -4.78398,-4.55479 -2.2364,-3.71056 -2.23642,-3.71056 -1.5528,-3.85252 -1.5528,-3.85253 -0.76545,-5.77371 -0.76545,-5.77371 0.79107,-5.22629 0.79107,-5.22629 1.59488,-4.2406 1.59487,-4.2406 3.04227,-4.57621 3.04226,-4.57622 3.45978,-3.02793 3.45979,-3.02794 5.0911,-2.64968 5.0911,-2.6497 4.24227,-1.09179 4.2422,-1.09179 6.06486,-0.005 6.06494,-0.005 3.60173,0.8258 3.6018,0.82579 5.33333,2.54233 5.33334,2.54233 4.1838,3.79421 4.18373,3.7942 2.0218,2.93858 2.0218,2.93857 2.0078,4.0467 2.00773,4.0467 0.9418,4.44331 0.94174,4.4433 0.0113,5.06003 0.0113,5.06002 -1.31466,5.1403 -1.31467,5.1403 -2.50827,4.79968 -2.5082,4.79968 -4.67713,4.67011 -4.67707,4.67011 -4.1498,2.19333 -4.1498,2.19332 -3.8502,1.36729 -3.8502,1.36728 -7.66666,0.25704 -7.66667,0.25704 -3.95567,-1.0001 z m 21.47353,-4.63496 5.25334,-1.65954 3.94773,-2.55937 3.94773,-2.55937 3.78407,-4.09922 3.78407,-4.09922 2.03486,-4.18188 2.03487,-4.18187 1.0144,-3.9734 1.0144,-3.9734 v -4.82712 -4.82712 l -0.72673,-3.53282 -0.72674,-3.53281 -2.55713,-5.33333 -2.55713,-5.33334 -3.54947,-3.7036 -3.54947,-3.7036 -3.66666,-2.47911 -3.66667,-2.47911 -5.33333,-1.75402 -5.33334,-1.75401 -6.33333,-0.0351 -6.33333,-0.0351 -4.66667,1.4504 -4.66667,1.4504 -4.24451,2.52139 -4.24452,2.52139 -3.8705,4.13584 -3.8705,4.13584 -2.39363,4.86416 -2.39362,4.86416 -0.97978,4.66666 -0.97978,4.66667 v 3 3 l 0.97046,4.5806 0.97047,4.5806 2.47817,5.01542 2.47816,5.01542 4.37313,4.41354 4.37312,4.41354 4.7492,2.48256 4.74913,2.48257 3.5842,0.964 3.58414,0.96401 6.13226,0.0439 6.13227,0.0439 5.25333,-1.65953 z m 103.65727,-76.01655 -4.15827,-0.90341 -3.928,-2.09361 -3.92806,-2.09362 -3.78927,-3.78331 -3.78933,-3.78331 -2.2852,-4.66666 -2.28527,-4.66667 -0.8066,-4.82402 -0.80667,-4.82401 0.7308,-5.07295 0.73087,-5.07294 2.46113,-4.97972 2.46107,-4.97972 3.46533,-3.46535 3.46534,-3.46534 4.64353,-2.41823 4.64347,-2.41824 3.5328,-0.73974 3.5328,-0.73974 h 3.60106 3.60107 l 3.5328,0.75063 3.5328,0.75063 4.60447,2.31036 4.60446,2.31036 3.4034,3.43901 3.40334,3.43901 2.13806,4.0543 2.138,4.05431 1.0208,3.91909 1.0208,3.9191 v 3.43561 3.4356 l -0.66586,3.591 -0.66587,3.59099 -2.33533,4.76206 -2.33534,4.76207 -3.62173,3.62174 -3.62173,3.62175 -4.03054,2.14825 -4.03053,2.14824 -4.5132,0.95637 -4.5132,0.95637 -3,-0.0414 -3,-0.0414 -4.1582,-0.90341 z m 17.87873,-4.9759 3.7206,-1.44675 3.26347,-2.46657 3.26353,-2.46656 2.52067,-3.31741 2.52067,-3.3174 1.47173,-3.66667 1.47173,-3.66666 v -6.66667 -6.66667 l -1.54773,-3.89578 -1.54773,-3.89578 -2.79514,-3.42884 -2.79506,-3.42884 -2.7788,-2.11942 -2.77874,-2.11942 -3.85486,-1.53244 L 815,264.38038 h -6.66667 -6.66666 l -3.8958,1.54775 -3.89574,1.54774 -3.4376,2.80055 -3.43753,2.80056 -2.515,3.59688 -2.51507,3.59688 -1.31826,4.2682 -1.31834,4.26818 v 3.78972 3.7897 l 1.03467,3.9734 1.03467,3.9734 1.75213,3 1.75213,3 3.5082,3.43344 3.50814,3.43344 3.67066,1.73651 3.67074,1.73651 2.53433,0.63888 2.53433,0.63886 5.33334,-0.24476 L 815,321.46145 Z m -473.12544,-17.40679 -3.4049,-0.56956 -5.5951,-1.75496 -5.59509,-1.75497 -5.66667,-2.92796 -5.66666,-2.92797 -4.39554,-3.3111 -4.39552,-3.31109 -4.37942,-4.64242 -4.37942,-4.64242 -2.63458,-3.88272 -2.63456,-3.88273 -2.33031,-4.66667 -2.33031,-4.66667 -1.36679,-4 -1.36679,-4 -1.10243,-5.33333 -1.10243,-5.33333 0.0285,-8.66667 0.0285,-8.66667 1.26404,-6.01445 1.26403,-6.01446 2.11892,-5.31887 2.11892,-5.31888 2.65496,-4.49028 2.65496,-4.49028 3.94072,-4.89859 3.9407,-4.89859 3.5353,-2.99471 3.53529,-2.99472 4.25411,-2.86731 4.25411,-2.8673 5.60869,-2.62832 5.60868,-2.62832 6.47054,-1.72831 6.47054,-1.72831 h 11 11 l 6.66666,1.77161 6.66667,1.77161 6.1468,2.96424 6.14681,2.96425 4.18652,2.81893 4.18654,2.81892 5.38607,5.38607 5.38607,5.38607 2.81892,4.18654 2.81893,4.18652 2.96425,6.14681 2.96424,6.1468 1.69127,6.66667 1.69127,6.66666 0.37258,7.33334 0.37259,7.33333 -1.02969,6.66667 -1.02968,6.66666 -1.7888,5.33334 -1.7888,5.33333 -2.18696,4.33334 -2.18697,4.33333 -3.49516,4.95221 -3.49516,4.95221 -4.27051,4.20791 -4.27052,4.20791 -4.12864,2.93801 -4.12864,2.93802 -5.33333,2.67692 -5.33333,2.67693 -4.33334,1.45524 -4.33333,1.45524 -4.89198,0.93637 -4.89199,0.93636 -8.77468,-0.0779 -8.77476,-0.078 z m 30.73824,-4.21245 6,-1.78176 4.86586,-2.28943 4.86586,-2.28943 4.96976,-3.4356 4.96976,-3.43559 5.83105,-6.12862 5.83105,-6.12862 3.0813,-5.28653 3.0813,-5.28654 1.73678,-4.40891 1.73678,-4.4089 1.0026,-3.84924 1.0026,-3.84925 0.76505,-5.74185 0.76506,-5.74185 -0.42937,-6.12179 -0.42938,-6.1218 -1.64816,-6.49728 -1.64818,-6.49729 -2.99381,-6.15414 -2.99382,-6.15415 -4.03813,-5.359 -4.03813,-5.359 -4.14291,-3.75559 -4.14292,-3.75559 -4.46144,-2.97108 -4.46144,-2.97108 -5.12597,-2.36835 -5.12597,-2.36834 -6.3434,-1.60913 -6.34339,-1.60914 -6.40253,-0.41734 -6.40252,-0.41734 -6,0.79432 -6,0.79431 -7.19822,2.38418 -7.19821,2.38417 -5.54926,3.30809 -5.54926,3.30808 -4.25253,3.69407 -4.25252,3.69406 -3.77612,4.34753 -3.77611,4.34754 -2.79064,4.8774 -2.79063,4.8774 -1.83653,4.51481 -1.83653,4.5148 -1.12693,4.4964 -1.12693,4.49638 -0.51776,5.83695 -0.51776,5.83694 0.53296,6.37364 0.53296,6.37364 1.68534,5.81575 1.68534,5.81575 1.97466,4.35501 1.97466,4.35503 3.07846,4.63067 3.07846,4.63067 3.44322,3.77618 3.44321,3.77617 4.84217,3.85439 4.84216,3.85439 4.17408,2.33429 4.17409,2.33428 4.65041,1.76785 4.65042,1.76785 5.66667,1.25042 5.66667,1.25041 L 360,300.41348 370.33333,300.17722 Z M 345,290.90464 l -4.66667,-0.98667 -5.21236,-2.23863 -5.21236,-2.23864 -3.7069,-2.22034 -3.7069,-2.22035 -4.95397,-4.60311 -4.95396,-4.60311 -2.97414,-4.16788 -2.97413,-4.16788 -2.64503,-5.64435 -2.64503,-5.64435 -1.40621,-5.918 -1.4062,-5.91799 0.002,-7.66667 0.002,-7.66666 0.99501,-4.67768 0.995,-4.67768 2.05884,-5.33874 2.05883,-5.33873 3.47782,-5.2976 3.47782,-5.2976 4.08246,-4.08245 4.08245,-4.08246 4.15516,-2.82171 4.15515,-2.82171 4.79405,-2.27122 4.79406,-2.27122 5.33334,-1.44673 5.33333,-1.44673 9.66667,-0.0401 9.66666,-0.04 4.33334,1.16125 4.33333,1.16124 4.33333,1.78136 4.33334,1.78136 3.84606,2.23962 3.84606,2.23962 4.00444,3.33254 4.00445,3.33253 3.64816,4.42283 3.64816,4.42284 2.96786,5.74632 2.96787,5.74633 1.80174,5.95891 1.80175,5.95891 0.01,10 0.01,10 -1.46,5.33333 -1.46001,5.33334 -2.93836,6 -2.93837,6 -4.33086,5.33333 -4.33085,5.33334 -3.88228,3.09025 -3.88227,3.09026 -3.66667,2.16057 -3.66667,2.16057 -4.76441,1.91051 -4.76442,1.91051 -4.77917,1.00533 -4.77916,1.00533 -8.12309,-0.0543 -8.12308,-0.0543 -4.66667,-0.98666 z m 26.81491,-4.2673 5.18509,-1.31754 5.33333,-2.56463 5.33334,-2.56463 4.13281,-3.12633 4.13282,-3.12633 3.13918,-3.46893 3.13919,-3.46894 2.89513,-4.45079 2.89513,-4.45079 1.95001,-4.88254 1.95001,-4.88255 1.13748,-5.63611 1.13748,-5.6361 -0.37251,-7.03056 -0.37251,-7.03056 -1.07304,-3.959 -1.07304,-3.95901 -1.57266,-3.89352 -1.57266,-3.89353 -2.23642,-3.7334 -2.2364,-3.7334 -4.60312,-4.95397 -4.6031,-4.95396 -4.06356,-2.88045 -4.06356,-2.88044 L 383,182.49072 379.66667,180.82211 374,178.95117 l -5.66667,-1.87094 -9.66666,-0.0397 -9.66667,-0.0397 -5.33333,1.52874 -5.33334,1.52874 -5.33333,2.64545 -5.33333,2.64545 -4.316,3.50953 -4.31598,3.50952 -3.90393,4.64825 -3.90393,4.64825 -2.95334,6.00095 -2.95336,6.00095 -1.39942,5.33333 -1.39944,5.33334 -0.0664,7.66666 -0.0664,7.66667 0.87534,4 0.87534,4 1.95178,5.09629 1.95176,5.0963 2.72792,4.23704 2.72792,4.23704 2.73983,3 2.73983,3 3.34427,2.89395 3.34427,2.89394 4.87451,2.87409 4.87451,2.87409 5.53503,1.76246 5.53503,1.76247 4.25712,0.59305 4.25713,0.59306 5.81491,-0.31278 5.81492,-0.31279 5.18508,-1.31754 z m -24.33789,-13.31643 -4.85632,-1.27235 -4.81035,-2.51384 -4.81035,-2.51384 -4.67011,-4.67711 -4.67012,-4.6771 -2.19332,-4.1498 -2.19332,-4.1498 -1.3598,-3.8502 -1.3598,-3.8502 -0.34704,-7 -0.34705,-7 1.09728,-4.66666 1.09728,-4.66667 2.45823,-5 2.45823,-5 5.34811,-5.37112 5.3481,-5.37113 4.66666,-2.40542 4.66667,-2.40542 4,-0.98934 4,-0.98933 3.53273,-0.42809 3.53272,-0.42809 5.40941,0.74065 5.40941,0.74065 4.29846,1.61794 4.29846,1.61793 4.63371,3.08049 4.6337,3.08048 3.31528,3.98371 3.31529,3.98372 2.32981,4.6264 2.32982,4.6264 1.06735,4.14478 1.06736,4.14479 0.0267,6 0.0267,6 -0.84834,3.66667 -0.84834,3.66666 -2.68439,5.66667 -2.68439,5.66667 -5.41406,5.3481 -5.41406,5.34811 -5.08607,2.50318 -5.08607,2.50319 -4.5806,0.97047 -4.5806,0.97046 -5.33333,-0.0251 -5.33333,-0.0251 -4.85632,-1.27236 z m 20.09342,-3.71102 4.09623,-1.05679 4.49213,-2.35499 4.49213,-2.35499 3.55134,-3.42156 3.55133,-3.42155 2.47257,-3.66667 2.47258,-3.66667 1.64856,-5.19455 1.64856,-5.19455 0.39766,-4.47212 0.39764,-4.47211 -1.05297,-5 -1.05298,-5 -2.45089,-5 -2.4509,-5 -4.72504,-4.72505 -4.72506,-4.72505 -5,-2.45089 -5,-2.4509 -5,-1.05477 -5,-1.05477 -4.88858,0.39355 -4.88858,0.39355 -4.76304,1.65642 -4.76304,1.65642 -4.56272,3.11758 -4.56273,3.11756 -3.0082,3.69289 -3.00821,3.69289 -1.89649,3.75692 -1.89649,3.75694 -1.04762,4.04292 L 320,227.19247 v 5.2637 5.2637 l 1.01441,3.9734 1.01442,3.9734 2.09486,4.33334 2.09486,4.33333 5.0574,5.05739 5.05738,5.05739 4.33334,2.09804 4.33333,2.09805 3.66667,0.96736 3.66666,0.96736 5.57044,0.0439 5.57044,0.0439 4.09623,-1.05678 z m 373.78023,-4.99881 -3.64934,-0.64308 -4.74986,-2.34695 -4.74987,-2.34695 -3.7174,-3.71745 -3.71747,-3.71746 -2.02926,-3.80723 -2.0292,-3.80723 -1.0208,-3.91909 -1.0208,-3.9191 v -3.82712 -3.82712 l 0.73673,-3.53281 0.73673,-3.53282 1.991,-4.22328 1.991,-4.22328 4.1056,-4.12169 4.1056,-4.12169 3.38327,-1.79976 3.3832,-1.79975 3.92353,-1.02194 3.92347,-1.02194 4.69327,0.0163 4.69326,0.0163 3,0.69093 3,0.69094 4.3294,2.1261 4.3294,2.1261 3.745,3.74106 3.745,3.74104 2.35627,4.71002 2.35633,4.71002 0.85874,4.8049 0.85866,4.80488 -0.76826,5.27116 -0.76834,5.27115 -2.03866,4.27177 -2.03874,4.27176 -3.32393,3.63686 -3.32387,3.63688 -3.21233,2.06133 -3.21233,2.06133 -3.81147,1.31136 -3.81153,1.31135 -4.80134,0.31864 L 745,265.25416 Z m 12.95933,-4.29968 3.92353,-1.02194 3.34414,-1.81139 3.3442,-1.8114 3.2156,-3.20826 3.21553,-3.20825 1.7572,-3.45841 1.75713,-3.45841 0.89174,-3.33333 0.8918,-3.33334 0.008,-3.35993 0.008,-3.35993 -0.9968,-3.82707 -0.99687,-3.82707 -1.30513,-2.55828 -1.30514,-2.55828 -3.426,-3.7486 -3.426,-3.7486 -5.0708,-2.50612 -5.0708,-2.50612 h -7.36786 -7.36794 l -4.50566,2.1343 -4.50574,2.1343 -3.68233,3.48261 -3.68233,3.48261 -2.38174,4.81916 -2.3818,4.81916 -0.35253,5.65128 -0.3526,5.6513 1.41713,4.6655 1.41707,4.66549 2.8846,3.91381 2.88453,3.91382 2.28734,1.73714 2.2874,1.73714 2.8338,1.4433 2.83373,1.44331 3.4996,0.94235 3.49953,0.94234 3.0266,0.0439 3.0266,0.0439 3.92347,-1.02194 z m 107.93133,4.02604 -4.09206,-0.88991 -3.8672,-1.89043 -3.8672,-1.89043 -3.47654,-3.17484 -3.47646,-3.17483 -2.06134,-3.21231 -2.06133,-3.21232 -1.30453,-3.79165 -1.30454,-3.79166 -0.4408,-3.89603 -0.4408,-3.89604 0.81047,-4.805 0.81047,-4.80501 2.36046,-4.71821 2.3604,-4.7182 3.79674,-3.73824 3.79673,-3.73824 3.69573,-1.86986 3.69567,-1.86987 3.57907,-0.95259 3.57906,-0.9526 4.69327,-0.008 4.69327,-0.008 3.92346,1.02194 3.92354,1.02194 3.3832,1.80532 3.38326,1.80532 4.00607,4.00607 4.00607,4.00608 1.80533,3.38324 1.80533,3.38324 1.02194,3.92349 L 902,227.6133 v 4.38654 4.38653 l -1.0208,3.9191 -1.0208,3.91909 -2.0954,3.93136 -2.0954,3.93136 -3.6418,3.64183 -3.6418,3.64183 -4.742,2.27657 -4.742,2.27658 -4.33333,0.6995 -4.33334,0.69951 -2,-0.0479 -2,-0.048 -4.092,-0.88991 z m 12.5592,-3.74247 3.5328,-0.73838 3.33314,-1.65106 3.33313,-1.65106 2.9258,-2.39744 2.92573,-2.39745 2.4952,-3.86055 2.4952,-3.86054 1.1672,-4.31212 1.16727,-4.31214 -0.3044,-5.25816 -0.3044,-5.25816 -2.05993,-4.40202 -2.05994,-4.40203 -2.87506,-3.11907 -2.87507,-3.11907 -2.7372,-1.88325 -2.7372,-1.88325 -4.27807,-1.44591 -4.27806,-1.4459 -6,0.2592 -6,0.2592 -4.5344,2.12317 -4.5344,2.12318 -3.8416,3.85225 -3.84167,3.85226 -1.84053,3.77538 -1.84047,3.77538 -0.7522,4.39129 -0.7522,4.39129 0.7592,4.43212 0.75913,4.43212 2.03287,4.12924 2.0328,4.12924 3.31987,3.31989 3.31993,3.31989 3.25993,1.77428 3.25994,1.77428 3.59686,0.96726 3.59694,0.96726 2.80053,0.0439 2.80053,0.0439 3.5328,-0.73838 z m -369.57108,-6.81865 -2.4372,-0.90936 -2.99253,-1.75373 -2.99253,-1.75374 -1.84348,-2.17974 -1.84349,-2.17974 -1.72678,-3.66667 -1.72677,-3.66667 v -6 -6 l 1.8542,-3.77577 1.8542,-3.77577 2.70336,-2.70336 2.70336,-2.70336 3.77577,-1.8542 3.77577,-1.8542 h 6 6 l 3.77578,1.8542 3.77577,1.8542 2.82801,2.81247 2.82801,2.81246 1.72955,3.66667 1.72955,3.66666 -0.003,6.33334 -0.003,6.33333 -1.82888,3.47539 -1.8289,3.47539 -1.97776,2.25255 -1.97776,2.25254 -4.19014,2.23785 -4.19015,2.23785 -5.66667,0.21038 -5.66666,0.21039 -2.43722,-0.90936 z m 15.2989,-4.83225 3.4568,-1.7226 2.62402,-2.98104 2.62403,-2.98105 1.05007,-3.08178 1.05006,-3.08178 v -3.42915 -3.42914 l -1.03618,-3.04104 -1.03618,-3.04103 -2.22462,-2.59896 -2.22462,-2.59897 -3.57253,-1.97876 -3.57253,-1.97876 H 512.33333 507 l -3.66667,2.06585 -3.66666,2.06586 -2.41358,3.16455 -2.41356,3.16455 -0.7531,2.51361 -0.7531,2.5136 v 3.33884 3.33884 l 1.01308,2.87136 1.01308,2.87138 1.67284,2.1932 1.67283,2.1932 2.31273,1.764 2.31274,1.76401 2.50135,0.89265 2.50135,0.89264 4.36911,0.0293 4.3691,0.0293 3.45681,-1.7226 z m 110.03444,4.83225 -2.43721,-0.90936 -2.99253,-1.75373 -2.99252,-1.75374 -1.77386,-2.10811 -1.77386,-2.10811 -1.7932,-3.40497 -1.7932,-3.40496 -0.003,-6.33333 -0.003,-6.33334 1.76757,-3.77025 1.76758,-3.77026 2.79265,-2.71017 2.79265,-2.71018 3.77311,-1.8529 3.77337,-1.8529 h 6 6 l 3.77577,1.8542 3.77577,1.8542 2.70336,2.70336 2.70336,2.70336 1.8542,3.77577 1.8542,3.77577 -0.003,6 -0.003,6 -1.50938,3.28023 -1.50938,3.28023 -2.2647,2.76376 -2.2647,2.76378 -4.22255,2.25512 -4.22255,2.25512 -5.66667,0.21038 -5.66667,0.21039 -2.43721,-0.90936 z m 16.27598,-5.31325 3.04929,-1.787 2.35312,-2.74909 2.35312,-2.74909 1.03618,-3.04104 1.03619,-3.04103 v -3.30389 -3.3039 l -0.7531,-2.5136 -0.7531,-2.51361 -2.41356,-3.16455 -2.41358,-3.16455 -3.66666,-2.06586 -3.66667,-2.06585 -5.33333,0.0129 -5.33334,0.0129 -3.42523,1.79379 -3.42523,1.79378 -2.37192,2.77106 -2.37192,2.77104 -1.03618,3.04104 -1.03618,3.04103 v 3.42915 3.42914 l 1.05006,3.08178 1.05007,3.08178 2.62403,2.98105 2.62402,2.98105 3.49258,1.77205 3.49257,1.77205 5.39474,-0.25775 5.39474,-0.25775 3.04929,-1.787 z M 803,203.94525 l -4,-0.58472 -5.42253,-2.67418 -5.4226,-2.67418 -3.71127,-4.0086 -3.7112,-4.00858 -2.01707,-4.2264 -2.01706,-4.22638 -0.8182,-4.77124 -0.8182,-4.77122 0.7696,-5.27988 0.76953,-5.27988 2.0748,-4.25539 2.07487,-4.25538 2.76833,-3.23867 2.76833,-3.23867 3.97494,-2.56912 3.97486,-2.5691 4.285,-1.3235 4.285,-1.32349 h 5.5262 5.5262 l 4.285,1.32349 4.285,1.3235 3.9574,2.55783 3.95747,2.55783 2.85127,3.23919 2.85126,3.23919 1.90647,4.04615 1.90647,4.04616 0.73673,3.53281 0.73673,3.53281 v 3.33559 3.33558 l -1.03926,4.5694 -1.03934,4.5694 -2.3338,3.89553 -2.33386,3.89554 -3.08514,3.14974 -3.08513,3.14974 -4.37507,2.28852 -4.37506,2.28852 -2.66667,0.66893 -2.66667,0.66893 -3.66666,0.32446 L 807,204.52996 Z m 10.409,-3.94876 3.591,-0.67019 4.21913,-2.06407 4.21907,-2.06408 3.47047,-3.5263 3.4704,-3.52631 1.7868,-3.64921 1.78686,-3.6492 0.674,-2.92356 0.674,-2.92356 0.009,-3.66667 0.009,-3.66667 -0.89047,-3.33333 -0.8904,-3.33333 -1.49687,-2.92803 -1.49686,-2.92802 -3.1048,-3.3291 -3.1048,-3.3291 -2.59587,-1.64511 -2.59593,-1.64512 -3.7374,-1.30069 -3.73747,-1.30069 -4.66667,-0.0606 -4.66666,-0.0606 -4,1.15106 -4,1.15106 -3.10107,1.9732 -3.10107,1.9732 -3.00373,3.21123 -3.00373,3.21124 -1.32167,2.59469 -1.32167,2.5947 -1.07353,3.621 -1.07353,3.621 0.008,3.71233 0.008,3.71233 0.8918,3.33334 0.89173,3.33333 1.75207,3.44841 1.75213,3.4484 3.44433,3.39048 3.4444,3.39048 4.07054,2.00219 4.07053,2.00219 3,0.58588 3,0.58588 2.07567,0.073 2.07566,0.073 3.591,-0.67019 z M 250.71585,616.25983 257,615.18632 l 7,-2.27189 7,-2.27188 8,-3.91803 8,-3.91803 9,-6.02966 9,-6.02966 7.66667,-6.15706 7.66666,-6.15707 6.98172,-6.04984 6.98171,-6.04985 17.68495,-16.35253 17.68496,-16.35252 8,-7.2335 8,-7.2335 8.2976,-6.63998 8.2976,-6.63996 8.36906,-5.55476 8.36907,-5.55476 6.15295,-3.06774 6.15294,-3.06774 6.14074,-2.0067 6.14074,-2.0067 8.03965,-1.61429 8.03965,-1.61429 8,-1.0221 8,-1.0221 12.66666,-0.98794 L 501,477.3743 l 18.97048,-0.68714 18.97048,-0.68714 H 575 611.05904 l 18.97048,0.68714 18.97048,0.68714 12.66667,0.98794 12.66666,0.98794 8,1.0221 8,1.0221 8.03967,1.61429 8.0396,1.61429 6.04953,1.97689 6.04954,1.97688 6.57746,3.30823 6.57754,3.30823 6.28666,4.13659 6.28667,4.13658 6.38,4.84613 6.38,4.84613 8.2346,7.07412 8.2346,7.07411 21.43207,19.80737 21.43206,19.80736 9.00214,7.70589 9.00206,7.70588 5.99687,4.66667 5.99687,4.66667 8.33433,5.57076 8.3344,5.57077 8,3.91717 8,3.91716 7,2.27188 7,2.27189 6.28413,1.07351 6.28414,1.07352 2.71586,-0.0333 2.71587,-0.0333 -6.33333,-2.27357 -6.33334,-2.27356 -7.37313,-3.6962 -7.3732,-3.6962 -7.1258,-4.63849 -7.1258,-4.63848 -6.8344,-5.14693 -6.83433,-5.14694 -8.18867,-6.93529 -8.1886,-6.9353 -5.14473,-4.71838 L 829,562.44909 810.33333,544.6942 791.66667,526.93932 786,521.67292 780.33333,516.40652 772,509.11822 763.66667,501.82991 756,496.05754 748.33333,490.28516 742,486.34874 l -6.33333,-3.93641 -6.33334,-2.84158 -6.33333,-2.84157 -6,-1.72678 -6,-1.72678 -8,-1.57856 -8,-1.57855 -8.66667,-1.05095 -8.66666,-1.05095 -13.33334,-1.00812 L 651,466.00037 l -17,-0.65791 -17,-0.65791 h -42 -42 l -17,0.65916 -17,0.65914 -13.66667,1.03325 -13.66666,1.03324 -8,0.99047 -8,0.99048 -7,1.3068 -7,1.3068 -6.2374,1.67413 -6.23738,1.67414 -5.09595,2.03327 -5.09594,2.03328 -5,2.72823 -5,2.72822 -5,3.34803 -5,3.34802 -5.33333,4.00469 -5.33334,4.00468 -8.66666,7.4411 -8.66667,7.44111 -6.33333,5.90677 -6.33334,5.90676 -18.66666,17.7497 -18.66667,17.7497 -5.14469,4.72507 -5.14469,4.72507 -8.18865,6.9353 -8.18864,6.93529 -6.83435,5.14694 -6.83435,5.14693 -7.12582,4.63848 -7.12582,4.63849 -7.37316,3.6962 -7.37316,3.6962 -6.33334,2.27356 -6.33333,2.27357 2.71585,0.0333 2.71586,0.0333 z M 609,178.66532 l 25.33333,-0.60583 6.98404,-1.08057 6.98404,-1.08057 6.01596,-1.92928 6.01596,-1.92928 5.33334,-3.30766 5.33333,-3.30767 5.78387,-5.21223 5.78386,-5.21223 11.2842,-12 11.28427,-12 14.0586,-13.78788 14.05853,-13.78789 4.8252,-3.38861 4.8252,-3.38861 4.28507,-1.3235 4.285,-1.323507 h 6.47893 6.479 l 6.28414,1.06362 6.28413,1.063613 10.1844,2.581954 10.18433,2.58195 10.92507,3.36336 10.925,3.36335 10.05353,3.62681 10.05354,3.62682 8.1704,3.42704 8.1704,3.42704 11.06406,5.6227 11.064,5.6227 7.1848,4.67684 7.18474,4.67684 0.225,-0.22502 0.225,-0.22502 -5.80714,-5.83026 -5.80713,-5.83027 -5,-3.36828 -5,-3.36829 -11.33333,-5.54563 -11.33334,-5.54563 -8,-3.14505 -8,-3.14505 -9.33333,-3.29341 -9.33333,-3.293407 -9.5846,-2.97592 -9.58467,-2.975913 -10.46973,-2.63754 -10.46974,-2.637541 -7.94566,-1.405606 -7.9456,-1.405607 -8.66667,-0.04013 -8.66667,-0.04013 -10.46153,3.463427 -10.46147,3.463427 -5.87186,0.76396 -5.8718,0.76396 H 575 442.33333 l -5.87182,-0.76396 -5.87182,-0.76396 -10.46151,-3.463427 -10.46151,-3.463427 -8.66667,0.04013 -8.66667,0.04013 -8,1.414233 -8,1.41424 L 366,91.29815 l -10.33333,2.59848 -10,3.1086 -10,3.10861 -11.33334,4.0318 -11.33333,4.0318 -9.33333,3.97473 -9.33334,3.97473 -7.66666,3.90866 -7.66667,3.90865 -5,3.33493 -5,3.33493 -5.80714,5.83027 -5.80715,5.83026 0.22502,0.22502 0.22502,0.22502 7.18475,-4.67684 7.18475,-4.67684 11.06404,-5.6227 11.06404,-5.6227 8.01266,-3.36069 8.01266,-3.36069 9.26527,-3.38854 9.26527,-3.38854 11.75601,-3.63864 11.75601,-3.63863 10.48623,-2.67536 10.48623,-2.67536 6.1465,-0.996874 6.1465,-0.996873 6.42977,-0.0027 6.42978,-0.0027 4.28501,1.323506 4.285,1.3235 4.95189,3.468871 4.95188,3.46887 19.02197,19.04096 19.02198,19.04096 9.64469,10 9.64469,10 3.66667,2.78355 3.66667,2.78355 3.99457,2.40347 3.99457,2.40346 6.02776,1.93086 6.02776,1.93087 7.311,1.12937 7.311,1.12936 21,0.47048 21,0.47048 12.66667,0.0845 12.66667,0.0845 L 609,178.66535 Z m -43,-4.3846 -3.66667,-0.96487 -4.00977,-2.01136 -4.00977,-2.01136 -3.18165,-2.71959 -3.18164,-2.71959 -2.67805,-3.9436 -2.67806,-3.94361 -1.68401,-4.47402 -1.68401,-4.474 -0.35082,-5.67602 -0.35082,-5.67603 1.08252,-4.59115 1.0825,-4.59114 2.48846,-4.74145 2.48846,-4.74145 3.8844,-3.82709 3.88442,-3.82709 5.44892,-2.6762 5.44892,-2.6762 5.2205,-0.79201 5.2205,-0.79201 5.44617,0.78224 5.44617,0.78224 5.45829,2.69062 5.45829,2.6906 3.92674,3.92675 3.92674,3.92674 2.43676,4.63715 2.43676,4.63716 1.0803,4.59114 1.08031,4.59115 -0.32785,5.33333 -0.32786,5.33334 -1.46922,4.33333 -1.46923,4.33333 -2.97706,4.48123 -2.97706,4.48122 -3.11819,2.66534 -3.11818,2.66534 -4.00977,2.00816 -4.00977,2.00817 -3.9734,1.01194 -3.9734,1.01194 -5.0266,-0.0439 -5.0266,-0.0439 L 566,174.28073 Z m 17.379,-4.02173 3.621,-1.07435 3,-1.5413 3,-1.54131 2.31601,-1.96348 2.316,-1.96348 -1.18047,-3.7449 -1.18047,-3.7449 -3.36515,-5.0313 -3.36514,-5.03131 -6.54843,-6.72943 -6.54843,-6.72943 -2.00924,1.4307 -2.00925,1.43071 -5.10431,5.4874 -5.10431,5.48739 -3.24394,4.84264 -3.24394,4.84263 -1.15148,3.65296 -1.1515,3.65295 1.48781,1.58369 1.48781,1.5837 3.42923,1.86642 3.42923,1.86643 3.70332,1.18511 3.70332,1.18511 5.04566,0.0359 5.04567,0.0359 3.621,-1.07434 z m -31.85265,-14.2273 1.17264,-3.30165 3.4487,-5.19835 3.4487,-5.19835 7.12773,-7.16667 L 573.85185,128 H 575 h 1.14815 l 7.12773,7.16667 7.12773,7.16667 3.4487,5.19835 3.4487,5.19835 1.17264,3.30165 1.17264,3.30165 h 0.49749 0.49749 l 0.36894,-1.5 0.36894,-1.5 -1.31082,-5.09569 -1.3108,-5.09568 -2.13668,-4.23765 -2.13666,-4.23765 -2.53128,-3.66667 -2.53128,-3.66666 -3.37748,-3.61308 -3.37748,-3.61307 v -0.81743 -0.81743 l 3.16666,-2.01346 3.16667,-2.01346 3.16667,-1.52221 3.16666,-1.52222 v -0.39008 -0.39008 l -1.97188,-1.16483 -1.97188,-1.16482 -4.36545,1.01242 -4.36544,1.01241 -3.82716,1.93524 -3.82715,1.93523 -3.83551,-1.93616 -3.83551,-1.93616 -4.36146,-1.01149 -4.36146,-1.01149 -1.97188,1.16482 -1.97188,1.16483 v 0.39008 0.39008 l 3.16666,1.52222 3.16667,1.52221 3.16667,2.01346 3.16666,2.01346 v 0.81502 0.81502 l -3.06242,3.28215 -3.06242,3.28215 -2.54766,3.33333 -2.54765,3.33334 -2.41737,4.83401 -2.41737,4.83401 -1.32879,5.16599 -1.3288,5.16599 0.36894,1.5 0.36894,1.5 h 0.49749 0.49749 z m 0.90468,-18.58398 2.37272,-4.24281 4.36947,-5.36818 4.36947,-5.36818 -1.27134,-0.93604 -1.27135,-0.93602 -4.14362,-2.04508 -4.14361,-2.04507 -0.99528,0.38192 -0.99526,0.38192 -2.38458,3.59143 -2.38457,3.59142 -1.37786,3.60682 -1.37786,3.60683 -0.35092,5.02526 -0.35091,5.02525 0.74721,3.48414 0.74721,3.48413 1.06219,2.49061 1.06218,2.49061 1.972,-5.98807 1.972,-5.98808 z M 605.78236,149.15883 607,145.66667 V 139 132.33334 l -1.20626,-3.45791 -1.20627,-3.45791 -2.62572,-4.0625 -2.62572,-4.0625 -0.99138,-0.38042 -0.99138,-0.38043 -4.17664,1.99181 -4.17663,1.9918 -1.26549,0.97235 -1.26549,0.97234 4.73887,5.85806 4.73888,5.85806 2.66122,5.41195 2.66122,5.41196 1.13466,4.1426 1.13468,4.1426 0.51308,-0.31711 0.51309,-0.3171 z m -19.40394,-40.33596 -0.2405,-0.2405 -3.56896,-0.94994 L 579,106.6825 h -4 -4 l -3.56896,0.94993 -3.56896,0.94994 -0.24675,0.24675 -0.24674,0.24674 5.8157,2.2954 5.81571,2.29541 5.80946,-2.30165 5.80947,-2.30165 z m -306.04509,9.99573 6,-3.36551 9.66667,-4.31222 9.66667,-4.31223 10.66666,-4.00645 L 327,98.81573 l 10.33333,-3.35894 10.33334,-3.358947 10,-2.741234 10,-2.74124 10,-2.099573 10,-2.099573 L 400,82.374756 412.33333,82.333289 423,85.915009 433.66667,89.496723 443.83333,89.844056 454,90.19139 v -5.416347 -5.416354 l -1.5,-0.30762 -1.5,-0.307627 -2.66667,-0.420093 -2.66666,-0.4201 L 441,75.352342 436.33333,72.801429 429.66667,69.058922 423,65.316419 l -5.33333,-2.079642 -5.33334,-2.079642 -6,-0.304827 -6,-0.304827 -10.66666,2.110521 L 379,64.768524 l -9.66667,2.305831 -9.66666,2.305841 -10.33334,3.01928 L 339,75.418762 l -9.66667,3.682347 -9.66666,3.682347 -11.33334,5.5591 L 297,93.90165 l -6.33333,4.171306 -6.33334,4.171304 -4.40182,4.37785 -4.40184,4.37785 -3.4315,6.99532 -3.4315,6.99532 v 0.5367 0.53671 l 2.83333,-1.93997 2.83333,-1.93998 6,-3.3655 z m 597.70767,-0.5283 -3.46447,-7.0931 -4.46666,-4.46663 -4.4666,-4.46662 -6.32167,-4.181127 -6.3216,-4.181127 -11.33333,-5.559093 -11.33334,-5.5591 -9.8396,-3.749221 -9.8396,-3.74922 -10.49373,-3.02184 -10.49373,-3.021833 -9.33334,-2.236407 L 771,64.768571 l -10.66667,-2.105498 -10.66666,-2.105496 -6,0.277614 -6,0.277615 -5.33334,2.10183 -5.33333,2.10183 -6.66667,3.742503 -6.66666,3.742507 -4.66667,2.550913 -4.66667,2.550907 -2.66666,0.4201 -2.66667,0.420093 -1.5,0.307627 -1.5,0.30762 v 5.416353 5.416347 L 706.16667,89.844103 716.33333,89.496769 727,85.915056 737.66667,82.333336 750,82.374803 l 12.33333,0.04147 10,2.099574 10,2.099573 10,2.74124 10,2.741234 10.33334,3.358946 10.33333,3.35894 10.5128,3.95816 10.5128,3.95815 9.82053,4.35778 9.82054,4.35778 6.33333,3.57389 6.33333,3.57388 2.33334,1.63225 2.33333,1.63224 0.25273,-0.23823 0.25274,-0.23823 -3.46447,-7.0931 z M 692,85.000003 V 79.333336 H 575 458 v 5.666667 5.666667 H 575 692 Z M 1480.4583,620.23613 1480,619.7778 v -3.27111 -3.2711 l 1.1667,0.22468 1.1666,0.22468 v 3.26864 3.26865 l -0.7083,0.23611 -0.7083,0.23612 z M 1480,604.33335 v -3.76443 l 1.1667,0.22468 1.1666,0.22468 v 3.31507 3.31508 l -1.1666,0.22468 -1.1667,0.22468 z m 0,-12.33333 v -3.4311 l 1.1667,0.22468 1.1666,0.22468 v 2.98174 2.98174 l -1.1666,0.22468 -1.1667,0.22468 z m 0,-12.33334 v -3.76443 l 1.1667,0.22468 1.1666,0.22468 v 3.31507 3.31508 l -1.1666,0.22468 -1.1667,0.22468 z m 0.1299,-12.44403 0.2034,-3.55597 h 1 1 v 3.3242 3.32421 l -1.2034,0.23176 -1.2034,0.23177 z m 0.3284,-8.98652 L 1480,557.7778 v -3.27111 -3.27111 l 1.1667,0.22468 1.1666,0.22468 v 3.26865 3.26865 l -0.7083,0.23611 -0.7083,0.23611 z M 1480,542.33335 v -3.76443 l 1.1667,0.22468 1.1666,0.22468 v 3.31507 3.31507 l -1.1666,0.22468 -1.1667,0.22468 z m 0.3985,-8.82371 -0.3985,-0.39851 v -3.27111 -3.2711 l 1.1667,0.22154 1.1666,0.22155 0.1998,3.07665 0.1998,3.07664 -0.968,0.37142 -0.9679,0.37143 z M 1480,517.66668 v -3.76443 l 1.1667,0.22468 1.1666,0.22468 v 3.31507 3.31508 l -1.1666,0.22468 -1.1667,0.22468 z m 0,-12.2451 v -3.34288 l 0.5318,-0.32868 0.5319,-0.32869 0.8447,0.52208 0.8447,0.52209 -0.2098,2.92817 -0.21,2.92818 -1.1666,0.2213 -1.1667,0.2213 z m 0,-12.42156 v -3.76444 l 1.1667,0.22468 1.1666,0.22468 v 3.31508 3.31507 l -1.1666,0.22468 -1.1667,0.22468 z m 0.1299,-12.44404 0.2034,-3.55596 h 1 1 v 3.3242 3.3242 l -1.2034,0.23176 -1.2034,0.23177 z m 0.3284,-8.98652 -0.4583,-0.45833 v -3.27111 -3.27111 l 1.1667,0.22468 1.1666,0.22468 v 3.26865 3.26865 l -0.7083,0.23611 -0.7083,0.23611 z M 1480,455.66668 v -3.76443 l 1.1667,0.22468 1.1666,0.22468 v 3.31507 3.31507 l -1.1666,0.22468 -1.1667,0.22468 z m 0,-12.33333 v -3.4311 l 1.1667,0.22468 1.1666,0.22468 v 2.98174 2.98174 l -1.1666,0.22468 -1.1667,0.22468 z m 0.123,-11.10938 0.2103,-2.55729 h 1 1 v 2.3242 2.32421 l -1.2103,0.23308 -1.2103,0.23309 z m -437.3415,-150.96254 -2.2186,-0.65975 -1.3608,-3.07638 -1.3608,-3.07636 0.2932,-5.06563 0.2933,-5.06563 1.1288,-1.72275 1.1287,-1.72276 1.6888,-0.76941 1.6886,-0.76942 h 1.5358 1.5359 l 2.1197,0.73895 2.1198,0.73894 0.8931,1.76106 0.8932,1.76105 0.4513,3.10338 0.4512,3.10338 -0.4639,3.49715 -0.4639,3.49716 -1.7341,1.87036 -1.7341,1.87037 -2.3334,0.32302 -2.3333,0.32303 z m 5.8589,-2.58068 1.2193,-0.65259 0.7368,-2.11356 0.7368,-2.11356 v -3.25526 -3.25526 l -0.9677,-2.31616 -0.9678,-2.31617 -1.7604,-0.66932 -1.7605,-0.66931 -1.7522,0.84022 -1.7524,0.84023 -0.8779,1.66667 -0.878,1.66666 0.1937,5.09873 0.1936,5.09873 1.2682,1.40127 1.2681,1.40127 h 1.9405 1.9405 z m -17.9737,-6.34741 v -9 h -0.4041 -0.4041 l -2.5252,2 -2.5252,2 h -0.3327 -0.3327 l -0.3646,-0.9499 -0.3645,-0.9499 3.5215,-2.71677 3.5214,-2.71676 h 1.4384 1.4384 v 10.66667 10.66666 H 1032 h -1.3333 z m 33.1854,-0.0273 -0.1854,-9.02726 -2.753,2.02579 -2.7529,2.02579 -0.7564,-0.9114 -0.7564,-0.91141 3.6474,-2.7538 3.6474,-2.7538 h 1.3619 1.362 v 10.66667 10.66667 h -1.3146 -1.3145 z m 8.1479,7.3606 v -1.66667 h 1.3333 1.3334 v 1.66667 1.66666 H 1073.3333 1072 Z m 9.7392,0.83333 0.4845,-0.83333 1.9686,-2.53074 1.9684,-2.53075 -0.247,-0.18237 -0.247,-0.18236 -2.7976,-0.80294 -2.7976,-0.80294 -1.3691,-1.74052 -1.3691,-1.74053 v -1.86669 -1.8667 l 0.6501,-1.70976 0.65,-1.70976 2.1833,-1.33115 2.1833,-1.33114 1.8665,-0.003 1.8664,-0.003 1.9264,0.9962 1.9264,0.99619 1.0405,1.48547 1.0405,1.48549 v 2.42835 2.42835 l -2.7169,3.92331 -2.7168,3.92331 -1.4499,2.15842 -1.4498,2.15841 -1.5393,0.008 -1.5393,0.008 0.4845,-0.83333 z m 7.8566,-11.95486 0.5957,-1.69123 -0.4523,-1.80224 -0.4523,-1.80224 -2.1322,-0.89653 -2.1323,-0.89653 -2.0112,0.82029 -2.0112,0.8203 -0.5958,1.69123 -0.5957,1.69124 0.4523,1.80223 0.4523,1.80224 2.1322,0.89653 2.1323,0.89653 2.0112,-0.82029 2.0112,-0.8203 z m 15.0709,4.78819 v -8 h 1.3333 1.3333 v 0.69012 0.69013 l 1.2896,-0.69013 1.2894,-0.69012 h 2.2739 2.2738 l 1.1893,1.31412 1.1892,1.31412 1.6707,-1.31412 1.6706,-1.31412 h 2.1696 2.1695 l 1.5739,1.27345 1.5739,1.27345 0.2291,6.72655 0.2291,6.72655 h -1.3958 -1.3958 V 275.43667 269.54 l -1.2191,-1.10333 -1.2192,-1.10333 -1.2808,0.0102 -1.2809,0.0102 -0.7916,0.50336 -0.7916,0.50336 -0.7084,1.86316 -0.7084,1.86317 v 4.62327 4.62326 h -1 -1 v -5.51832 -5.51834 l -1.0378,-1.48166 -1.0378,-1.48168 h -1.9244 -1.9244 l -1.0378,1.48168 -1.0378,1.48166 v 5.51834 5.51832 H 1106 h -1.3333 v -8 z m 28,0.31242 v -7.6876 l 1.0672,-0.40955 1.0673,-0.40955 0.5717,0.9249 0.5716,0.9249 0.8278,-0.82776 0.8277,-0.82776 h 2.5399 2.5398 l 1.1068,1.29261 1.1068,1.29261 1.6432,-1.29261 1.6433,-1.29261 h 2.1696 2.1695 l 1.5739,1.27345 1.5739,1.27345 0.2291,6.72655 0.2291,6.72655 h -1.3958 -1.3958 v -5.95238 -5.95238 l -1.0476,-1.04762 -1.0476,-1.04762 h -1.5157 -1.5157 l -1.1034,1.21916 -1.1033,1.21916 v 5.78084 5.78084 h -1.3333 -1.3334 v -5.51832 -5.51834 l -1.0378,-1.48166 -1.0378,-1.48168 h -1.9244 -1.9244 l -1.0378,1.48168 -1.0378,1.48166 v 5.51834 5.51832 H 1134 h -1.3333 z m -77.7983,-27.11045 -1.465,-0.70779 -1.035,-2.18117 -1.0351,-2.18118 v -5.43236 -5.43235 l 1.007,-1.94713 1.0068,-1.94713 1.2826,-0.68643 1.2826,-0.68643 h 3.0877 3.0877 l 1.3459,0.72033 1.3459,0.72032 0.9436,2.25826 0.9436,2.25826 v 4.85475 4.85475 l -1.1657,2.32406 -1.1656,2.32406 -1.6667,0.83278 -1.6666,0.83278 -2.3334,-0.0353 -2.3333,-0.0353 -1.4649,-0.70778 z m 5.6583,-1.62914 1.5267,-0.40897 0.9733,-1.88215 0.9733,-1.88216 v -4.9432 -4.9432 l -1.3817,-1.75658 -1.3818,-1.75657 H 1059 h -2.2365 l -1.3818,1.75657 -1.3817,1.75658 v 5.28725 5.28725 l 0.7103,1.32712 0.7102,1.3271 1.4564,0.58681 1.4564,0.58681 0.3334,0.0331 0.3333,0.0331 1.5267,-0.40896 z m -25.9864,-0.7395 -0.207,-2.5 -5.2388,-0.196 -5.2387,-0.19601 0.2871,-1.47066 0.2871,-1.47066 4.6183,-6.48271 4.6184,-6.4827 1.8333,-0.0173 1.8333,-0.0173 v 7 7 h 1.6667 1.6667 v 1 1 H 1039 h -1.6667 v 2.66667 2.66667 h -1.293 -1.2932 z m 0.1264,-10.20601 v -5.37267 l -0.5688,0.35152 -0.5688,0.35152 -3.4711,5.02116 -3.4711,5.02115 h 4.0399 4.0399 z M 1044,245.33334 v -1.33333 h 1.6667 1.6666 v 1.33333 1.33333 H 1045.6667 1044 Z m 33.3333,-7.66667 v -9 h -0.3724 -0.3724 l -2.5768,2.07075 -2.5768,2.07075 -0.7174,-0.44343 -0.7175,-0.44342 v -0.54625 -0.54625 l 3.5616,-2.74774 3.5615,-2.74774 h 1.4385 1.4384 v 10.66667 10.66666 h -1.3333 -1.3334 z m 7.4598,-9.5 0.2069,-2.5 1.5,-0.21303 1.5,-0.21303 v 0.40111 0.40111 l -0.966,2.31192 -0.9659,2.31192 h -0.741 -0.7409 z m 4.7902,0.41667 0.4167,-2.08333 v -0.58334 -0.58333 h 1.6131 1.613 l -1.0475,2.66667 -1.0475,2.66666 h -0.9822 -0.9822 z m -57.8113,-21.03356 -0.4387,-0.43866 V 133.88889 60.666669 h -0.479 -0.479 l -3.4559,3.41292 -3.4559,3.41292 -0.7317,-0.452267 L 1022,66.587979 v -0.698375 -0.698375 l 4.7793,-4.928947 4.7794,-4.928947 h 0.705 0.705 l 4.849,4.816648 4.849,4.816649 v 1.183351 1.183352 h -0.8124 -0.8124 l -3.521,-3.477226 L 1034,60.378882 v 73.062268 73.06226 l -0.8947,0.74252 -0.8946,0.74251 z"
       id="path293" />
  </g>
</svg>
